<?xml version="1.0" standalone="no"?>
<!DOCTYPE svg PUBLIC "-//W3C//DTD SVG 20010904//EN"
 "http://www.w3.org/TR/2001/REC-SVG-20010904/DTD/svg10.dtd">
<svg version="1.0" xmlns="http://www.w3.org/2000/svg"
 width="1746.000000pt" height="1602.000000pt" viewBox="0 0 1746.000000 1602.000000"
 preserveAspectRatio="xMidYMid meet">

<g transform="translate(0.000000,1602.000000) scale(0.100000,-0.100000)"
fill="#000000" stroke="none">
<path d="M0 8010 l0 -8010 8730 0 8730 0 0 8010 0 8010 -8730 0 -8730 0 0
-8010z m564 7759 c50 -39 24 -119 -39 -119 -63 0 -89 80 -39 119 15 12 32 21
39 21 7 0 24 -9 39 -21z m421 12 c3 -5 1 -12 -5 -16 -5 -3 -10 1 -10 9 0 18 6
21 15 7z m4032 -60 l26 24 -12 -23 c-10 -19 -10 -28 4 -48 20 -30 9 -32 -15
-1 l-19 22 -10 -25 c-8 -20 -9 -9 -9 50 1 54 3 61 5 26 l4 -48 26 23z m-3474
52 c-27 -4 -33 -9 -33 -29 0 -19 5 -24 28 -25 l27 -2 -27 -4 c-22 -3 -28 -10
-28 -28 0 -19 6 -24 33 -28 28 -3 26 -4 -10 -5 l-43 -2 0 65 0 65 43 -2 c36
-1 38 -2 10 -5z m1326 -55 c21 -62 22 -87 1 -49 -14 28 -60 28 -67 1 -3 -11
-9 -20 -14 -20 -12 0 -12 -4 12 60 35 91 40 92 68 8z m231 0 l0 -63 -32 -2
c-38 -3 -58 12 -58 42 0 29 24 49 50 42 16 -4 20 0 20 19 0 13 5 24 10 24 6 0
10 -27 10 -62z m804 56 c9 -3 16 -13 16 -22 0 -13 -3 -12 -20 3 -39 35 -91 -3
-75 -55 11 -33 42 -44 72 -25 19 13 24 13 21 3 -3 -7 -16 -17 -31 -22 -39 -14
-77 15 -77 59 0 53 41 79 94 59z m914 -22 c2 -13 -2 -29 -8 -37 -9 -10 -9 -19
0 -35 6 -12 9 -24 7 -27 -3 -3 -13 9 -22 27 -20 39 -47 36 -56 -5 -5 -21 -7
-9 -8 38 l-1 68 43 -3 c35 -3 43 -7 45 -26z m381 -34 c21 -62 22 -87 1 -49
-14 28 -60 28 -67 1 -3 -11 -9 -20 -14 -20 -12 0 -12 -4 12 60 35 91 40 92 68
8z m271 -3 c0 -37 -4 -65 -10 -65 -6 0 -10 28 -10 65 0 37 4 65 10 65 6 0 10
-28 10 -65z m-2936 23 c8 -5 7 -8 -1 -8 -8 0 -14 -16 -15 -42 -1 -41 -1 -41
-5 -8 -3 19 -9 41 -15 47 -7 9 -7 13 1 13 6 0 11 8 12 18 0 13 2 14 6 2 3 -8
11 -18 17 -22z m1670 0 c8 -5 7 -8 -1 -8 -8 0 -14 -16 -15 -42 -1 -41 -1 -41
-5 -8 -3 19 -9 41 -15 47 -7 9 -7 13 1 13 6 0 11 8 12 18 0 13 2 14 6 2 3 -8
11 -18 17 -22z m258 15 c5 -27 -3 -103 -12 -103 -9 0 -17 76 -12 103 2 10 7
17 12 17 5 0 10 -7 12 -17z m-3831 -45 l15 -31 13 31 c8 18 18 32 23 32 5 0 8
-3 6 -7 -2 -5 -10 -25 -18 -45 -17 -45 -34 -49 -48 -10 -5 15 -13 35 -17 45
-13 31 11 18 26 -15z m147 5 c3 -20 -1 -23 -27 -23 -17 0 -31 -4 -31 -9 0 -14
27 -20 39 -8 6 6 14 8 18 4 11 -12 -13 -29 -37 -25 -30 4 -45 29 -36 62 6 24
11 27 39 24 24 -2 33 -8 35 -25z m65 10 c-15 -10 -23 -26 -23 -44 0 -16 -4
-29 -10 -29 -5 0 -10 20 -10 43 0 43 1 44 33 45 32 0 32 0 10 -15z m51 -8 c4
-14 11 -25 16 -25 5 0 12 11 16 25 6 23 24 36 24 16 0 -19 -31 -81 -40 -81 -9
0 -40 62 -40 81 0 20 18 7 24 -16z m96 -20 c0 -25 -4 -45 -10 -45 -5 0 -10 20
-10 45 0 25 5 45 10 45 6 0 10 -20 10 -45z m98 18 c3 -20 -1 -23 -27 -23 -17
0 -31 -4 -31 -9 0 -14 27 -20 39 -8 6 6 14 8 18 4 11 -12 -13 -29 -37 -25 -30
4 -45 29 -36 62 6 24 11 27 39 24 24 -2 33 -8 35 -25z m40 0 l10 -28 11 28 c6
15 15 27 20 27 5 0 14 -12 19 -27 l10 -28 11 28 c18 46 31 30 14 -18 -16 -47
-36 -55 -41 -17 -4 30 -18 28 -26 -3 -11 -45 -27 -32 -50 43 -11 32 10 27 22
-5z m542 8 c13 -25 13 -71 0 -71 -5 0 -10 16 -10 35 0 23 -6 38 -15 42 -21 7
-27 0 -35 -44 l-8 -38 -1 45 c-1 44 0 46 29 48 20 2 32 -4 40 -17z m120 -28
c0 -24 -5 -53 -10 -64 -13 -23 -52 -25 -70 -4 -14 17 0 21 17 4 16 -16 43 -4
43 19 0 15 -6 18 -30 14 -25 -3 -30 0 -36 22 -9 36 10 56 52 54 33 -1 34 -2
34 -45z m94 31 c3 -9 6 -28 6 -42 0 -23 -5 -27 -32 -29 -18 -2 -35 3 -39 9
-12 18 2 38 25 37 16 -1 17 -2 4 -6 -10 -2 -18 -11 -18 -19 0 -32 35 -10 38
24 3 27 0 32 -17 32 -12 0 -21 -5 -21 -12 0 -6 -3 -9 -6 -5 -11 11 7 27 31 27
12 0 26 -7 29 -16z m116 -40 c0 -33 -5 -56 -14 -64 -18 -14 -58 -10 -64 8 -3
11 0 11 16 1 17 -10 23 -10 36 0 27 23 19 37 -19 33 -30 -4 -35 -1 -41 22 -9
36 11 56 52 53 34 -2 34 -2 34 -53z m98 29 c3 -20 -1 -23 -27 -23 -17 0 -31
-5 -31 -10 0 -18 29 -23 47 -9 14 12 16 12 11 -1 -2 -8 -17 -16 -31 -18 -35
-4 -55 33 -37 67 16 30 64 26 68 -6z m158 -23 l2 -45 -7 40 c-7 46 -37 62 -45
23 -3 -13 -7 -32 -9 -43 -3 -11 -5 -3 -6 18 -1 24 -7 40 -16 44 -21 7 -27 0
-35 -44 l-8 -38 -1 46 -1 46 63 -1 62 -1 1 -45z m103 31 c13 -23 5 -31 -31
-31 -15 0 -28 -5 -28 -10 0 -17 29 -23 45 -10 10 8 15 9 15 2 0 -30 -64 -25
-72 6 -3 10 -1 28 3 40 10 28 54 30 68 3z m107 -5 c3 -13 4 -35 1 -47 -3 -19
-5 -18 -6 7 -1 37 -26 63 -42 47 -6 -6 -15 -26 -19 -45 -8 -32 -8 -32 -9 12
-1 44 -1 45 34 47 29 3 36 -1 41 -21z m470 -47 c19 -16 34 -2 44 43 8 32 8 32
9 -12 1 -44 0 -45 -31 -47 -38 -3 -48 10 -46 57 l1 35 4 -32 c2 -17 11 -37 19
-44z m201 4 c-2 -16 -4 -5 -4 22 0 28 2 40 4 28 2 -13 2 -35 0 -50z m102 48
c13 -23 5 -31 -31 -31 -15 0 -28 -5 -28 -10 0 -17 29 -23 45 -10 10 8 15 9 15
2 0 -30 -64 -25 -72 6 -3 10 -1 28 3 40 10 28 54 30 68 3z m107 -31 l2 -45 -7
40 c-5 31 -10 40 -26 40 -16 0 -21 -8 -23 -37 -4 -52 -22 -48 -22 5 l0 43 38
-1 37 0 1 -45z m102 30 c5 -13 3 -13 -11 -1 -23 19 -47 7 -47 -24 0 -30 24
-43 45 -25 10 8 15 9 15 2 0 -30 -64 -25 -72 6 -3 10 -1 28 3 41 7 17 15 22
36 19 14 -2 29 -10 31 -18z m100 -7 c3 -20 -1 -23 -27 -23 -17 0 -31 -5 -31
-10 0 -18 29 -23 47 -9 14 12 16 12 11 -1 -2 -8 -17 -16 -31 -18 -35 -4 -55
33 -37 67 16 30 64 26 68 -6z m481 9 c23 -44 -28 -92 -64 -62 -18 15 -20 51
-3 68 18 18 56 14 67 -6z m107 -6 c3 -13 4 -35 1 -47 -3 -19 -5 -18 -6 7 -1
37 -26 63 -42 47 -6 -6 -15 -26 -19 -45 -8 -32 -8 -32 -9 12 -1 44 -1 45 34
47 29 3 36 -1 41 -21z m152 12 c23 -23 13 -38 -25 -38 -35 0 -36 -1 -20 -17
14 -15 21 -16 37 -5 12 7 20 8 20 2 0 -16 -49 -23 -65 -10 -30 25 -12 80 25
80 9 0 21 -5 28 -12z m112 -7 c13 -25 13 -71 0 -71 -5 0 -10 16 -10 35 0 23
-6 38 -15 42 -21 7 -27 0 -35 -44 l-8 -38 -1 45 c-1 44 0 46 29 48 20 2 32 -4
40 -17z m457 -48 c-2 -16 -4 -5 -4 22 0 28 2 40 4 28 2 -13 2 -35 0 -50z m88
57 c4 -7 -2 -9 -19 -4 -34 8 -35 -13 0 -26 16 -7 24 -16 22 -27 -4 -21 -35
-30 -51 -14 -7 7 -4 8 10 5 31 -8 38 14 9 28 -25 11 -33 28 -19 41 10 11 41 8
48 -3z m371 -40 l2 -45 -7 40 c-5 31 -10 40 -26 40 -16 0 -21 -8 -23 -37 -4
-53 -22 -48 -22 6 l0 44 38 -1 c37 -2 37 -2 38 -47z m102 4 c3 -40 3 -41 -30
-40 -26 1 -33 5 -33 21 0 12 8 21 20 23 20 4 20 3 1 -11 -14 -10 -16 -16 -7
-21 20 -13 41 2 41 29 0 30 -24 43 -45 25 -8 -7 -15 -8 -15 -3 0 17 14 24 40
21 22 -3 25 -9 28 -44z m121 -1 c6 16 11 33 11 38 0 5 4 9 10 9 8 0 2 -20 -37
-117 -3 -7 -12 -13 -21 -13 -13 0 -13 2 3 14 18 13 18 15 2 58 -22 58 -20 74
3 23 l18 -40 11 28z m101 38 c0 -5 -9 -7 -20 -4 -14 4 -20 0 -20 -11 0 -9 6
-16 14 -16 22 0 38 -24 24 -38 -15 -15 -45 -16 -53 -2 -4 7 2 9 19 4 20 -5 26
-2 26 10 0 9 -6 16 -14 16 -18 0 -39 27 -31 40 8 12 55 14 55 1z m37 -58 c-2
-16 -4 -5 -4 22 0 28 2 40 4 28 2 -13 2 -35 0 -50z m88 57 c4 -7 -2 -9 -19 -4
-34 8 -35 -13 0 -26 16 -7 24 -16 22 -27 -4 -21 -35 -30 -51 -14 -7 7 -4 8 10
5 31 -8 38 14 9 28 -25 11 -33 28 -19 41 10 11 41 8 48 -3z m-5042 -949 c54
-21 41 -86 -18 -97 -28 -5 -35 -11 -35 -30 0 -15 -6 -24 -15 -24 -12 0 -15 15
-15 73 0 41 3 77 7 80 9 10 48 9 76 -2z m317 2 c0 -3 -7 -15 -17 -25 -15 -17
-14 -18 20 -18 l37 0 0 -55 c0 -30 -4 -55 -10 -55 -5 0 -10 18 -10 40 0 36 -2
40 -25 40 -22 0 -25 -4 -25 -40 0 -22 -4 -40 -10 -40 -5 0 -10 18 -10 39 0 22
-4 42 -9 46 -9 5 -1 26 22 63 9 13 37 17 37 5z m40 -8 c0 -8 -4 -15 -10 -15
-5 0 -10 7 -10 15 0 8 5 15 10 15 6 0 10 -7 10 -15z m60 -65 c0 -64 -3 -80
-15 -80 -12 0 -15 16 -15 80 0 64 3 80 15 80 12 0 15 -16 15 -80z m304 69 c47
-22 55 -105 13 -134 -54 -38 -117 -3 -117 64 0 31 6 44 26 60 31 24 43 26 78
10z m516 -4 c0 -8 -4 -15 -9 -15 -13 0 -22 16 -14 24 11 11 23 6 23 -9z
m-1120 -51 c0 -6 -9 -14 -20 -17 -15 -4 -20 -14 -20 -41 0 -20 -4 -36 -10 -36
-5 0 -10 24 -10 53 0 53 0 54 30 54 17 0 30 -6 30 -13z m102 -1 c36 -33 13
-93 -37 -93 -52 0 -74 65 -33 94 29 20 47 20 70 -1z m302 1 c27 -27 20 -44
-19 -44 -26 0 -35 -4 -35 -16 0 -13 7 -15 37 -9 33 6 35 5 24 -9 -16 -19 -62
-21 -79 -4 -30 30 -3 98 38 98 10 0 26 -7 34 -16z m293 -21 l15 -38 15 38 c15
36 33 50 33 25 0 -26 -35 -98 -48 -98 -11 0 -52 78 -52 101 0 23 23 5 37 -28z
m154 27 c10 -6 19 -20 19 -30 0 -16 -7 -20 -36 -20 -24 0 -34 -4 -31 -12 2 -8
18 -12 37 -10 28 2 31 0 20 -13 -27 -33 -90 -7 -90 37 0 25 27 58 47 58 8 0
23 -5 34 -10z m109 -6 c0 -6 -9 -14 -20 -17 -15 -4 -20 -14 -20 -41 0 -20 -4
-36 -10 -36 -5 0 -10 24 -10 53 0 53 0 54 30 54 17 0 30 -6 30 -13z m52 -21
l15 -38 16 38 c17 40 43 53 31 15 -17 -54 -35 -88 -48 -88 -12 0 -46 71 -46
98 0 25 18 11 32 -25z m108 -18 c0 -30 -4 -55 -10 -55 -5 0 -10 25 -10 55 0
30 5 55 10 55 6 0 10 -25 10 -55z m112 38 c30 -27 22 -43 -23 -43 -28 0 -39
-4 -36 -12 2 -8 19 -12 42 -11 32 2 35 1 25 -12 -15 -18 -61 -20 -78 -3 -18
18 -15 75 6 87 25 15 43 13 64 -6z m55 -13 c3 -16 9 -30 13 -30 5 0 11 14 15
30 9 39 23 38 40 -2 l14 -33 11 33 c15 39 35 43 27 5 -9 -46 -26 -83 -37 -83
-6 0 -16 15 -22 32 l-12 33 -13 -33 c-18 -45 -37 -40 -51 13 -15 55 -15 65 -2
65 6 0 13 -13 17 -30z m-1307 -254 c0 -3 -4 -8 -10 -11 -5 -3 -10 -1 -10 4 0
6 5 11 10 11 6 0 10 -2 10 -4z m38 -63 c-1 -49 -3 -56 -5 -25 -4 41 -5 42 -41
44 l-37 1 38 4 c29 3 37 9 37 24 0 10 2 19 5 19 3 0 4 -30 3 -67z m952 63 c0
-3 -4 -8 -10 -11 -5 -3 -10 -1 -10 4 0 6 5 11 10 11 6 0 10 -2 10 -4z m77 -93
c-2 -21 -4 -6 -4 32 0 39 2 55 4 38 2 -18 2 -50 0 -70z m346 81 c-3 -9 0 -20
8 -25 10 -6 10 -9 2 -9 -8 0 -14 -16 -15 -42 l-1 -43 -6 45 c-7 51 -3 90 10
90 5 0 6 -7 2 -16z m1094 -81 c-2 -21 -4 -6 -4 32 0 39 2 55 4 38 2 -18 2 -50
0 -70z m100 17 c4 0 18 10 32 23 25 21 25 21 8 0 -17 -20 -18 -23 -2 -50 16
-27 16 -27 0 -5 -10 12 -22 22 -27 22 -5 0 -13 -10 -18 -22 -6 -17 -8 -4 -8
47 1 45 3 55 5 28 2 -24 7 -43 10 -43z m-703 38 c8 -5 7 -8 -1 -8 -8 0 -14
-16 -15 -42 l-1 -43 -4 40 c-3 22 -10 43 -16 47 -9 6 -9 8 1 8 6 0 12 8 13 18
0 13 2 14 6 2 3 -8 11 -18 17 -22z m1286 -45 l-5 -48 -3 40 c-2 22 -9 43 -15
47 -9 6 -9 8 1 8 6 0 12 8 13 18 0 16 1 16 7 0 4 -10 5 -39 2 -65z m-3254 -1
l1 -42 -4 41 c-4 35 -7 40 -26 37 -17 -2 -23 -12 -28 -43 l-6 -40 -2 42 c-1
43 8 53 44 50 16 -2 20 -10 21 -45z m169 -33 c18 -8 17 -8 -5 -6 -22 2 -25 7
-26 47 l-2 45 7 -39 c4 -26 13 -42 26 -47z m32 19 c-2 -13 -4 -3 -4 22 0 25 2
35 4 23 2 -13 2 -33 0 -45z m97 54 c2 -4 -8 -8 -22 -7 -22 0 -28 -5 -30 -28
-3 -21 2 -29 20 -36 14 -6 17 -10 8 -10 -35 -2 -54 51 -28 77 14 14 44 16 52
4z m47 -40 c-4 -54 -11 -53 -11 3 0 27 3 45 7 41 4 -4 6 -24 4 -44z m53 39 c4
-5 -3 -7 -14 -4 -23 6 -26 13 -6 13 8 0 17 -4 20 -9z m100 1 c2 -4 -8 -8 -22
-7 -23 0 -27 -4 -27 -30 0 -26 4 -30 27 -30 14 1 24 -3 22 -7 -8 -12 -38 -10
-52 4 -15 15 -15 51 0 66 14 14 44 16 52 4z m100 0 c2 -4 -8 -8 -22 -7 -22 0
-28 -5 -30 -28 -3 -21 2 -29 20 -36 14 -6 17 -10 8 -10 -22 -1 -40 19 -40 44
0 12 5 26 12 33 14 14 44 16 52 4z m63 -5 c-9 -7 -18 -28 -20 -47 -3 -31 -4
-30 -5 10 -2 40 1 46 19 47 19 2 19 0 6 -10z m161 1 c26 -26 7 -79 -27 -77
-10 0 -7 4 7 10 33 13 27 60 -8 70 -21 6 -22 7 -4 8 11 1 25 -4 32 -11z m132
3 c-18 -5 -26 -15 -28 -34 -4 -32 21 -46 49 -28 11 6 19 7 19 1 0 -16 -49 -23
-65 -10 -32 26 -11 81 30 79 17 -1 16 -2 -5 -8z m138 -38 l-1 -48 -4 42 c-4
40 -6 42 -41 46 l-37 4 43 1 42 2 -2 -47z m119 41 c-3 -3 -12 -4 -19 -1 -8 3
-5 6 6 6 11 1 17 -2 13 -5z m110 -61 c-2 -16 -4 -5 -4 22 0 28 2 40 4 28 2
-13 2 -35 0 -50z m44 19 c-4 -54 -11 -53 -11 3 0 27 3 45 7 41 4 -4 6 -24 4
-44z m53 39 c4 -5 -3 -7 -14 -4 -23 6 -26 13 -6 13 8 0 17 -4 20 -9z m160 0
c3 -4 -6 -6 -19 -3 -14 2 -25 6 -25 8 0 8 39 4 44 -5z m161 -1 c4 -6 13 -5 25
2 28 18 50 -6 49 -51 l-2 -36 -6 40 c-5 31 -10 40 -26 40 -16 0 -21 -9 -26
-40 l-5 -40 -5 40 c-3 32 -8 40 -24 40 -16 0 -21 -9 -26 -40 l-6 -40 -2 45
c-1 42 1 46 24 48 13 1 27 -3 30 -8z m161 -35 l1 -40 -4 39 c-4 34 -7 38 -28
33 -14 -2 -22 0 -19 5 3 5 16 8 27 6 18 -2 22 -10 23 -43z m101 -22 c-2 -16
-4 -5 -4 22 0 28 2 40 4 28 2 -13 2 -35 0 -50z m97 58 c3 -4 -6 -6 -19 -3 -14
2 -25 6 -25 8 0 8 39 4 44 -5z m46 -46 l-8 -40 -1 50 c-1 29 3 45 8 40 5 -6 6
-28 1 -50z m59 41 c7 -8 11 -30 8 -48 l-4 -33 -1 38 c-2 29 -7 40 -24 47 -16
6 -18 9 -7 9 9 1 22 -5 28 -13z m149 2 c7 -7 12 -28 12 -47 0 -43 -14 -32 -14
12 -1 28 -4 32 -28 32 -14 -1 -24 3 -22 7 8 12 38 10 52 -4z m108 -36 l1 -42
-4 41 c-4 35 -7 40 -26 37 -17 -2 -23 -12 -28 -43 l-6 -40 -2 42 c-1 43 8 53
44 50 16 -2 20 -10 21 -45z m74 39 c-35 -10 -41 -57 -8 -70 14 -6 17 -10 8
-10 -22 -1 -40 19 -40 44 0 27 18 45 45 44 17 -1 16 -2 -5 -8z m257 3 c-3 -3
-12 -4 -19 -1 -8 3 -5 6 6 6 11 1 17 -2 13 -5z m253 -9 c9 -10 9 -15 1 -15 -6
0 -11 4 -11 9 0 5 -8 12 -17 14 -15 4 -15 5 -2 6 9 0 22 -6 29 -14z m56 -33
l1 -42 -4 39 c-3 26 -10 41 -21 45 -12 3 -12 4 3 3 16 -2 20 -10 21 -45z m98
40 c2 -4 -8 -8 -22 -7 -22 0 -28 -5 -30 -28 -3 -21 2 -29 20 -36 14 -6 17 -10
8 -10 -22 -1 -40 19 -40 44 0 12 5 26 12 33 14 14 44 16 52 4z m163 -59 c-2
-16 -4 -5 -4 22 0 28 2 40 4 28 2 -13 2 -35 0 -50z m97 58 c3 -4 -6 -6 -19 -3
-14 2 -25 6 -25 8 0 8 39 4 44 -5z m80 0 c4 -5 -3 -7 -14 -4 -23 6 -26 13 -6
13 8 0 17 -4 20 -9z m-2772 -61 c0 -28 -3 -54 -6 -57 -3 -4 -6 22 -6 57 0 35
3 61 6 58 3 -3 5 -29 6 -58z m465 38 c-3 -8 -6 -5 -6 6 -1 11 2 17 5 13 3 -3
4 -12 1 -19z m289 -13 c0 -25 -3 -31 -9 -20 -7 13 -2 55 7 55 1 0 2 -16 2 -35z
m520 0 c0 -25 -3 -31 -9 -20 -7 13 -2 55 7 55 1 0 2 -16 2 -35z m771 13 c-3
-8 -6 -5 -6 6 -1 11 2 17 5 13 3 -3 4 -12 1 -19z m43 -13 c0 -5 -5 -3 -10 5
-5 8 -10 20 -10 25 0 6 5 3 10 -5 5 -8 10 -19 10 -25z m664 -4 c-5 -6 -34 20
-34 30 0 5 8 1 18 -8 10 -10 17 -20 16 -22z m-1927 -3 c-3 -8 -6 -5 -6 6 -1
11 2 17 5 13 3 -3 4 -12 1 -19z m520 0 c-3 -8 -6 -5 -6 6 -1 11 2 17 5 13 3
-3 4 -12 1 -19z m206 5 c-19 -7 -16 -31 5 -36 15 -4 15 -5 0 -6 -9 0 -20 4
-23 9 -9 15 2 40 17 39 10 0 10 -2 1 -6z m-450 -37 c18 -4 18 -4 -3 -3 -14 1
-25 8 -26 17 0 8 1 10 3 3 2 -6 14 -14 26 -17z m1007 13 c0 8 2 12 5 9 3 -3 2
-13 -1 -22 -5 -14 -9 -15 -15 -4 -5 7 -9 18 -9 23 0 6 5 3 10 -5 8 -12 10 -12
10 -1z m663 -11 c-2 -5 -13 -8 -23 -8 -10 0 -21 3 -23 8 -3 4 8 7 23 7 15 0
26 -3 23 -7z m-2326 -4 c-3 -3 -12 -4 -19 -1 -8 3 -5 6 6 6 11 1 17 -2 13 -5z
m350 0 c-3 -3 -12 -4 -19 -1 -8 3 -5 6 6 6 11 1 17 -2 13 -5z m520 0 c-3 -3
-12 -4 -19 -1 -8 3 -5 6 6 6 11 1 17 -2 13 -5z m710 0 c-3 -3 -12 -4 -19 -1
-8 3 -5 6 6 6 11 1 17 -2 13 -5z m650 0 c-3 -3 -12 -4 -19 -1 -8 3 -5 6 6 6
11 1 17 -2 13 -5z m-582 -34 c-3 -5 -12 -10 -18 -10 -7 0 -6 4 3 10 19 12 23
12 15 0z m-2526 -435 l0 -20 -9 20 c-8 19 -9 19 -9 -2 -1 -19 -6 -22 -38 -19
-21 2 -47 4 -57 5 -29 2 -9 18 50 40 52 20 64 15 63 -24z m106 15 c3 -5 2 -10
-4 -10 -5 0 -13 5 -16 10 -3 6 -2 10 4 10 5 0 13 -4 16 -10z m85 3 c0 -17 -17
-33 -36 -33 -17 0 -24 6 -24 20 0 15 6 19 30 17 16 -1 30 -3 30 -4z m1047 -24
c31 -26 7 -69 -39 -69 -23 0 -28 -4 -28 -25 0 -14 -4 -25 -10 -25 -12 0 -14
123 -3 134 10 10 62 -1 80 -15z m243 11 c0 -5 -4 -10 -10 -10 -5 0 -10 -7 -10
-15 0 -10 10 -15 30 -15 29 0 30 -2 30 -45 0 -25 -4 -45 -10 -45 -5 0 -10 18
-10 40 0 33 -3 40 -20 40 -17 0 -20 -7 -20 -40 0 -22 -4 -40 -9 -40 -15 0 -17
82 -3 113 12 26 32 37 32 17z m80 -60 c0 -40 -4 -70 -10 -70 -6 0 -10 30 -10
70 0 40 4 70 10 70 6 0 10 -30 10 -70z m238 64 c36 -7 47 -31 31 -67 -8 -18
-8 -30 0 -46 8 -14 8 -21 1 -21 -6 0 -16 11 -22 25 -6 14 -19 25 -30 25 -13 0
-18 -7 -18 -25 0 -14 -4 -25 -10 -25 -11 0 -14 123 -3 133 8 9 13 9 51 1z
m232 -10 c0 -8 -5 -12 -10 -9 -6 4 -8 11 -5 16 9 14 15 11 15 -7z m4221 -3
c13 -11 21 -23 17 -27 -5 -4 -17 1 -27 10 -13 11 -27 15 -40 11 -24 -7 -38
-51 -24 -74 13 -21 50 -26 69 -10 8 6 18 9 22 5 11 -12 -29 -36 -59 -36 -58 0
-80 82 -33 119 33 26 45 26 75 2z m726 -2 c17 -15 17 -34 -2 -49 -13 -11 -13
-15 1 -41 8 -17 10 -29 4 -29 -6 0 -16 11 -22 25 -6 14 -19 25 -30 25 -13 0
-18 -7 -18 -25 0 -14 -4 -25 -10 -25 -12 0 -14 123 -3 134 10 10 62 -1 80 -15z
m4270 -52 c21 -59 22 -91 2 -54 -12 21 -65 23 -73 2 -3 -8 -10 -15 -15 -15
-10 0 24 104 42 128 13 17 18 11 44 -61z m223 43 c0 -13 8 -20 28 -22 24 -3
27 -7 30 -45 2 -24 -1 -43 -7 -43 -5 0 -11 17 -13 38 -2 25 -8 37 -18 37 -10
0 -16 -12 -18 -37 -6 -66 -22 -41 -22 33 0 44 4 68 10 64 6 -3 10 -15 10 -25z
m510 14 c0 -8 -5 -12 -10 -9 -6 4 -8 11 -5 16 9 14 15 11 15 -7z m284 10 c18
-7 22 -39 6 -49 -15 -9 9 -37 26 -31 7 3 14 -6 16 -23 4 -26 2 -27 -44 -29
-56 -2 -78 20 -53 56 8 11 12 28 9 36 -3 9 -1 23 6 31 14 17 13 17 34 9z m190
-4 c18 -6 26 -17 26 -34 0 -28 -16 -43 -50 -48 -16 -2 -27 -12 -31 -28 -4 -16
-7 2 -8 48 -1 79 5 85 63 62z m-11984 -10 c0 -5 -10 -10 -22 -9 -22 0 -22 1
-3 9 11 5 21 9 23 9 1 1 2 -3 2 -9z m6710 0 c0 -5 -2 -10 -4 -10 -3 0 -8 5
-11 10 -3 6 -1 10 4 10 6 0 11 -4 11 -10z m4660 0 c0 -5 -2 -10 -4 -10 -3 0
-8 5 -11 10 -3 6 -1 10 4 10 6 0 11 -4 11 -10z m1210 0 c0 -5 -2 -10 -4 -10
-3 0 -8 5 -11 10 -3 6 -1 10 4 10 6 0 11 -4 11 -10z m-11070 -15 c0 -8 6 -15
13 -16 10 0 10 -2 0 -6 -8 -2 -13 -22 -13 -44 0 -21 -4 -39 -9 -39 -9 0 -18
74 -13 103 4 21 22 22 22 2z m4562 -2 c5 -29 -4 -103 -13 -103 -5 0 -9 18 -9
40 0 25 -5 40 -12 41 -10 0 -10 2 0 6 6 2 12 11 12 19 0 20 18 18 22 -3z m271
-13 c8 0 7 -4 -1 -12 -7 -7 -13 -28 -14 -47 l-1 -36 -4 35 c-3 19 -9 41 -15
47 -7 9 -7 13 1 13 6 0 12 8 12 18 1 16 2 16 6 0 2 -10 10 -18 16 -18z m317
15 c0 -8 6 -15 13 -16 10 0 10 -2 0 -6 -8 -2 -13 -22 -13 -44 0 -21 -4 -39
-10 -39 -5 0 -10 18 -10 40 0 25 -5 40 -12 41 -10 0 -10 2 0 6 6 2 12 11 12
19 0 8 5 14 10 14 6 0 10 -7 10 -15z m4292 -2 c5 -29 -4 -103 -13 -103 -5 0
-9 18 -9 40 0 25 -5 40 -12 41 -10 0 -10 2 0 6 6 2 12 11 12 19 0 20 18 18 22
-3z m368 2 c0 -8 6 -15 13 -16 10 0 10 -2 0 -6 -8 -2 -13 -22 -13 -44 0 -21
-4 -39 -9 -39 -9 0 -18 74 -13 103 4 21 22 22 22 2z m252 -2 c5 -29 -4 -103
-13 -103 -5 0 -9 18 -9 40 0 25 -5 40 -12 41 -10 0 -10 2 0 6 6 2 12 11 12 19
0 20 18 18 22 -3z m958 2 c0 -8 6 -15 13 -16 10 0 10 -2 0 -6 -8 -2 -13 -22
-13 -44 0 -21 -4 -39 -10 -39 -5 0 -10 18 -10 40 0 25 -5 40 -12 41 -10 0 -10
2 0 6 6 2 12 11 12 19 0 8 5 14 10 14 6 0 10 -7 10 -15z m-11694 -30 c-10 -8
-22 -29 -26 -47 -8 -32 -8 -32 -9 12 -1 43 1 46 27 48 25 1 26 1 8 -13z m104
-1 c22 -26 1 -69 -34 -69 -36 0 -58 30 -45 63 10 26 59 31 79 6z m248 4 c23
-23 13 -38 -25 -38 -35 0 -36 -1 -20 -17 13 -13 19 -14 29 -5 17 17 33 15 18
-3 -34 -41 -96 6 -71 54 13 23 50 28 69 9z m270 -33 c3 -40 2 -41 -31 -43 -53
-4 -60 37 -9 52 12 4 22 12 22 17 0 13 -24 11 -38 -3 -7 -7 -12 -8 -12 -2 0
18 13 25 40 22 22 -3 25 -9 28 -43z m99 -22 c-2 -16 -4 -5 -4 22 0 28 2 40 4
28 2 -13 2 -35 0 -50z m111 20 c2 -24 -1 -43 -7 -43 -5 0 -11 17 -13 38 -2 25
-8 37 -18 37 -10 0 -16 -12 -18 -37 -4 -53 -22 -48 -22 6 l0 43 38 -1 c36 -1
37 -2 40 -43z m112 -8 c0 -28 -5 -56 -12 -63 -17 -17 -53 -15 -69 5 -12 15
-12 16 6 9 34 -14 49 -12 53 7 3 15 0 18 -16 13 -23 -8 -52 16 -52 43 0 27 21
42 57 39 33 -2 33 -3 33 -53z m4118 43 c28 -28 7 -78 -33 -78 -27 0 -45 18
-45 45 0 27 18 45 45 45 12 0 26 -5 33 -12z m112 -8 c13 -24 13 -70 0 -70 -5
0 -10 15 -10 34 0 36 -19 53 -39 33 -6 -6 -11 -24 -11 -39 0 -15 -4 -28 -10
-28 -5 0 -10 20 -10 43 0 43 1 44 35 45 25 1 38 -4 45 -18z m158 8 c23 -23 13
-38 -25 -38 -35 0 -36 -1 -20 -17 13 -13 20 -14 29 -5 17 17 33 15 18 -3 -34
-41 -96 6 -71 54 13 23 50 28 69 9z m108 -38 c1 -28 0 -33 -3 -13 -8 62 -53
69 -53 7 0 -19 -4 -34 -10 -34 -5 0 -10 20 -10 44 l0 44 38 -1 c37 -2 37 -2
38 -47z m332 3 l3 -41 -38 1 c-50 2 -59 33 -14 48 17 6 31 15 31 20 0 13 -24
11 -38 -3 -9 -9 -12 -8 -12 6 0 14 7 17 33 14 30 -3 32 -6 35 -45z m102 2 c0
-25 -4 -45 -10 -45 -5 0 -10 20 -10 45 0 25 5 45 10 45 6 0 10 -20 10 -45z
m102 33 c11 -18 10 -78 -2 -78 -5 0 -10 15 -10 34 0 62 -45 55 -53 -7 -3 -25
-4 -22 -5 13 -2 45 -1 46 30 48 17 1 35 -3 40 -10z m118 -43 c0 -28 -5 -56
-12 -63 -17 -17 -53 -15 -68 3 -14 17 -3 20 19 6 18 -12 41 -3 41 16 0 10 -6
13 -16 9 -22 -8 -54 11 -54 34 0 39 11 50 51 48 l39 -1 0 -52z m3900 20 c0
-28 4 -35 20 -35 13 0 22 9 26 28 10 48 12 48 13 2 1 -44 0 -46 -31 -48 -17
-1 -35 3 -40 10 -11 18 -10 78 2 78 6 0 10 -16 10 -35z m330 16 c15 -29 13
-31 -25 -31 -36 0 -47 -13 -19 -24 9 -4 23 -1 32 6 13 11 14 10 10 -2 -6 -19
-45 -25 -64 -10 -17 15 -18 52 -2 68 18 18 56 14 68 -7z m108 -28 c2 -24 -1
-43 -7 -43 -5 0 -11 17 -13 38 -2 25 -8 37 -18 37 -10 0 -16 -12 -18 -37 -4
-53 -22 -48 -22 6 l0 43 38 -1 c36 -1 37 -2 40 -43z m102 2 c0 -25 -4 -45 -10
-45 -5 0 -10 20 -10 45 0 25 5 45 10 45 6 0 10 -20 10 -45z m100 30 c14 -17 0
-21 -16 -5 -15 15 -44 1 -44 -20 0 -25 22 -41 40 -30 23 15 34 12 20 -5 -34
-41 -96 6 -71 54 14 25 53 28 71 6z m37 -52 c-2 -16 -4 -5 -4 22 0 28 2 40 4
28 2 -13 2 -35 0 -50z m112 35 l13 -33 14 34 c22 50 30 29 9 -26 -22 -58 -33
-73 -53 -73 -13 0 -12 3 3 14 21 15 21 15 -12 104 -11 28 14 9 26 -20z m481
13 c15 -29 13 -31 -25 -31 -36 0 -47 -13 -19 -24 9 -4 23 -1 32 6 13 11 14 10
10 -2 -6 -19 -45 -25 -64 -10 -17 15 -18 52 -2 68 18 18 56 14 68 -7z m66 4
c-10 -8 -22 -29 -26 -47 -8 -32 -8 -32 -9 12 -1 43 1 46 27 48 25 1 26 1 8
-13z m99 4 c11 -17 -3 -23 -20 -9 -13 11 -19 11 -31 -2 -13 -12 -14 -20 -5
-37 10 -17 16 -19 31 -11 27 14 34 12 20 -6 -18 -20 -61 -14 -70 11 -13 35 6
65 39 65 16 0 33 -5 36 -11z m99 -5 c11 -29 6 -34 -31 -34 -35 0 -36 -1 -21
-17 14 -14 20 -14 33 -3 17 14 31 8 20 -9 -7 -12 -45 -14 -61 -3 -17 11 -22
35 -13 60 10 27 63 32 73 6z m111 -29 c0 -38 -1 -40 -32 -40 -28 0 -33 -4 -33
-22 0 -13 -4 -23 -10 -23 -6 0 -10 28 -10 64 l0 64 43 -2 42 -1 0 -40z m105 0
c0 -25 -4 -45 -10 -45 -5 0 -10 20 -10 45 0 25 5 45 10 45 6 0 10 -20 10 -45z
m98 33 c7 -7 12 -21 12 -33 0 -12 -5 -26 -12 -33 -7 -7 -21 -12 -33 -12 -12 0
-26 5 -33 12 -7 7 -12 21 -12 33 0 12 5 26 12 33 7 7 21 12 33 12 12 0 26 -5
33 -12z m112 -8 c13 -24 13 -70 0 -70 -5 0 -10 15 -10 34 0 36 -19 53 -39 33
-6 -6 -11 -24 -11 -39 0 -15 -4 -28 -10 -28 -5 0 -10 20 -10 43 0 43 1 44 35
45 25 1 38 -4 45 -18z m-13140 -78 c-5 -2 -10 -17 -10 -33 0 -27 -3 -29 -37
-31 l-38 -1 37 -4 36 -4 7 -69 c4 -38 4 -87 0 -109 -6 -34 -4 -41 9 -41 15 0
16 16 11 141 l-6 141 203 -5 c260 -7 358 -17 358 -36 0 -4 -93 -9 -207 -10
-114 -1 -210 -4 -212 -7 -2 -2 95 -4 217 -4 l221 0 28 -47 c53 -91 97 -298 74
-353 -8 -22 -10 -18 -10 27 -1 42 -5 55 -23 67 -12 9 -17 16 -10 16 6 0 12 5
12 11 0 5 -4 8 -9 4 -5 -3 -16 4 -24 16 -11 15 -22 19 -39 15 -12 -3 -17 -3
-10 0 20 9 14 26 -8 19 -15 -5 -22 -1 -29 17 -5 13 -5 24 0 26 16 6 10 87 -8
112 -25 36 -43 48 -85 55 -56 10 -111 -3 -144 -33 l-29 -27 27 -3 c25 -3 26
-5 16 -34 -7 -18 -7 -33 -1 -37 13 -9 14 -51 1 -75 -11 -20 -10 -20 16 -3 18
12 25 14 24 5 -7 -31 -84 -51 -99 -26 -5 7 -11 9 -15 6 -3 -4 5 -18 19 -32 14
-14 21 -28 16 -31 -5 -4 -7 -10 -4 -15 3 -5 1 -11 -5 -15 -6 -4 -8 -10 -5 -15
6 -10 -22 -33 -33 -26 -5 3 -7 -5 -5 -17 4 -17 -2 -26 -22 -35 -15 -7 -31 -10
-36 -7 -5 4 -9 1 -9 -5 0 -7 -6 -8 -19 -1 -10 6 -21 7 -25 4 -3 -3 -6 -1 -6 5
0 7 -7 12 -15 12 -9 0 -18 7 -21 15 -4 8 -12 15 -19 15 -8 0 -17 10 -21 22 -3
12 -10 26 -15 32 -58 74 -54 71 -97 60 l-40 -11 -11 37 c-6 21 -11 54 -11 74
0 54 -44 96 -100 96 -23 0 -51 -5 -63 -11 -39 -20 -77 -62 -77 -85 0 -12 -10
-34 -22 -49 -12 -15 -27 -51 -33 -79 -8 -36 -17 -52 -30 -55 -13 -2 -16 1 -12
13 8 19 -18 46 -44 46 -10 0 -19 5 -19 11 0 5 -6 7 -12 4 -7 -4 -5 0 5 8 15
13 15 16 2 27 -20 17 -20 61 0 54 17 -7 16 -7 19 56 3 50 49 140 72 140 7 0
11 6 9 13 -2 6 4 22 14 34 15 18 31 23 92 25 101 4 352 4 339 0z m1208 -194
c17 -17 15 -45 -5 -79 -19 -32 -38 -39 -28 -10 4 13 0 20 -15 24 -37 10 -20
77 20 77 9 0 21 -5 28 -12z m77 -5 c-4 -10 -14 -37 -22 -60 -8 -24 -19 -43
-25 -43 -6 0 -7 8 -3 18 4 9 14 36 22 60 8 23 19 42 25 42 6 0 7 -8 3 -17z
m55 -43 c0 -33 -4 -60 -10 -60 -5 0 -10 23 -10 50 0 28 -4 50 -10 50 -5 0 -10
5 -10 10 0 6 9 10 20 10 18 0 20 -7 20 -60z m108 28 c17 -37 -2 -81 -38 -86
-42 -6 -65 51 -39 99 15 30 60 22 77 -13z m4775 15 c3 -10 4 -36 3 -58 -1 -39
-2 -40 -36 -40 -34 0 -35 1 -36 40 -2 62 4 75 36 75 19 0 30 -6 33 -17z m127
-43 c0 -33 -4 -60 -10 -60 -5 0 -10 23 -10 50 0 28 -2 50 -4 50 -2 0 -11 2
-18 5 -10 4 -20 -11 -33 -50 -11 -30 -23 -55 -27 -55 -11 0 -11 2 13 65 19 52
22 55 55 55 l34 0 0 -60z m104 28 c14 -41 -3 -82 -35 -86 -32 -4 -52 19 -51
59 1 40 19 61 51 57 18 -2 29 -12 35 -30z m4776 23 c0 -19 -43 -111 -52 -111
-6 0 -8 6 -5 13 3 6 12 29 21 50 l16 37 -30 0 c-16 0 -30 5 -30 10 0 6 18 10
40 10 22 0 40 -4 40 -9z m25 -48 c-20 -55 -41 -83 -32 -42 10 41 38 102 44 95
3 -3 -2 -27 -12 -53z m63 -5 c-2 -60 -2 -61 -5 -14 -3 31 -11 54 -21 63 -15
11 -15 12 6 13 21 0 22 -4 20 -62z m116 30 c14 -41 -3 -82 -35 -86 -32 -4 -52
19 -51 59 1 40 19 61 51 57 18 -2 29 -12 35 -30z m-9697 11 c-10 -6 -22 -20
-27 -32 -6 -16 -9 -18 -9 -5 -1 19 25 48 42 48 7 0 4 -5 -6 -11z m63 -4 c7 -9
10 -18 6 -22 -3 -3 -6 -1 -6 6 0 6 -10 16 -22 21 -16 6 -18 9 -7 9 9 1 22 -6
29 -14z m397 -82 c-2 -21 -4 -6 -4 32 0 39 2 55 4 38 2 -18 2 -50 0 -70z m40
0 c-2 -21 -4 -6 -4 32 0 39 2 55 4 38 2 -18 2 -50 0 -70z m4506 87 c-13 -5
-23 -15 -23 -21 0 -7 -3 -9 -6 -6 -10 10 16 37 35 36 11 0 9 -3 -6 -9z m61 -6
c9 -8 16 -21 16 -27 0 -7 -5 -4 -11 5 -5 10 -17 22 -27 27 -9 6 -12 11 -5 11
6 0 19 -7 27 -16z m393 -81 c-2 -21 -4 -6 -4 32 0 39 2 55 4 38 2 -18 2 -50 0
-70z m4547 81 c9 -24 7 -31 -4 -14 -9 13 -11 13 -20 0 -11 -17 -13 -10 -4 14
3 9 10 16 14 16 4 0 11 -7 14 -16z m226 -81 c-6 -32 -8 -26 -8 32 0 53 2 62 8
38 4 -17 4 -49 0 -70z m334 55 c8 -5 7 -8 -1 -8 -8 0 -14 -16 -15 -42 l-1 -43
-4 40 c-3 22 -10 43 -16 47 -9 6 -9 8 1 8 6 0 12 8 13 18 0 13 2 14 6 2 3 -8
11 -18 17 -22z m225 -6 c-5 -2 -10 -22 -11 -45 l-1 -42 -6 45 c-8 57 -4 74 14
57 7 -7 9 -13 4 -15z m-10552 2 c-3 -3 -12 -4 -19 -1 -8 3 -5 6 6 6 11 1 17
-2 13 -5z m80 -7 c-9 -7 -18 -28 -20 -47 -3 -31 -4 -30 -5 10 -2 40 1 46 19
47 19 2 19 0 6 -10z m91 1 c7 -7 12 -28 12 -47 0 -43 -14 -32 -14 12 -1 28 -4
32 -28 32 -14 -1 -24 3 -22 7 8 12 38 10 52 -4z m4850 0 c7 -7 12 -17 12 -22
0 -6 -5 -3 -11 7 -15 26 -46 21 -57 -10 -6 -16 -11 -22 -11 -15 -3 41 40 67
67 40z m158 -33 l1 -40 -4 39 c-4 34 -7 38 -28 33 -14 -2 -22 0 -19 5 3 5 16
8 27 6 18 -2 22 -10 23 -43z m4724 -1 c0 -25 -4 -43 -8 -40 -7 4 -4 86 4 86 2
0 4 -21 4 -46z m53 39 c-7 -2 -19 -2 -25 0 -7 3 -2 5 12 5 14 0 19 -2 13 -5z
m96 -7 c7 -8 11 -30 8 -48 l-4 -33 -1 38 c-2 29 -7 40 -24 47 -16 6 -18 9 -7
9 9 1 22 -5 28 -13z m99 2 c7 -7 12 -17 12 -22 0 -6 -5 -3 -11 7 -15 26 -46
21 -57 -10 -6 -16 -11 -22 -11 -15 -3 41 40 67 67 40z m108 -36 l1 -42 -4 41
c-4 35 -7 40 -26 37 -17 -2 -23 -12 -28 -43 l-6 -40 -2 42 c-1 43 8 53 44 50
16 -2 20 -10 21 -45z m101 -19 c-2 -16 -4 -5 -4 22 0 28 2 40 4 28 2 -13 2
-35 0 -50z m94 50 c13 -16 12 -17 -3 -4 -10 7 -27 11 -38 8 -11 -3 -18 -1 -14
4 9 15 41 10 55 -8z m-10614 -15 c-3 -8 -6 -5 -6 6 -1 11 2 17 5 13 3 -3 4
-12 1 -19z m43 -13 c0 -5 -5 -3 -10 5 -5 8 -10 20 -10 25 0 6 5 3 10 -5 5 -8
10 -19 10 -25z m41 8 c-12 -20 -14 -14 -5 12 4 9 9 14 11 11 3 -2 0 -13 -6
-23z m96 5 c-3 -8 -6 -5 -6 6 -1 11 2 17 5 13 3 -3 4 -12 1 -19z m4873 -23 c0
-5 -5 -3 -10 5 -5 8 -10 20 -10 25 0 6 5 3 10 -5 5 -8 10 -19 10 -25z m5741 8
c-12 -20 -14 -14 -5 12 4 9 9 14 11 11 3 -2 0 -13 -6 -23z m-10862 -31 c12 -2
31 4 42 14 23 21 26 12 3 -10 -30 -30 -94 -7 -94 33 0 10 5 7 13 -9 7 -14 23
-26 36 -28z m5055 7 c-9 -10 -26 -19 -37 -19 -22 0 -57 27 -57 44 0 6 7 0 16
-12 21 -30 65 -26 79 6 5 12 11 18 13 12 2 -6 -4 -20 -14 -31z m5563 19 c-3
-8 -6 -5 -6 6 -1 11 2 17 5 13 3 -3 4 -12 1 -19z m-10254 5 c-19 -7 -16 -31 5
-36 15 -4 15 -5 0 -6 -9 0 -20 4 -23 9 -9 15 2 40 17 39 10 0 10 -2 1 -6z
m9584 -17 c-7 -14 -13 -23 -15 -21 -7 6 9 45 18 45 4 0 3 -11 -3 -24z m78 3
c10 -30 2 -32 -12 -3 -6 13 -7 24 -3 24 5 0 12 -9 15 -21z m-4652 -23 c18 -4
18 -4 -3 -3 -14 1 -25 8 -26 17 0 8 1 10 3 3 2 -6 14 -14 26 -17z m5473 -4
c-4 -3 -11 0 -16 8 -15 24 -11 33 6 15 9 -9 13 -19 10 -23z m-10713 11 c-3 -7
-6 -13 -8 -13 -2 0 -5 6 -8 13 -3 8 1 14 8 14 7 0 11 -6 8 -14z m10547 2 c-14
-16 -46 -20 -54 -6 -3 4 5 6 18 4 13 -3 27 0 30 6 4 6 10 11 13 11 3 0 0 -7
-7 -15z m-5540 -5 c0 -5 -4 -10 -10 -10 -5 0 -10 5 -10 10 0 6 5 10 10 10 6 0
10 -4 10 -10z m86 -8 c-10 -2 -22 0 -28 6 -6 6 0 7 19 4 21 -5 23 -7 9 -10z
m4865 0 c-7 -2 -18 1 -23 6 -8 8 -4 9 13 5 13 -4 18 -8 10 -11z m265 0 c-10
-2 -22 0 -28 6 -6 6 0 7 19 4 21 -5 23 -7 9 -10z m-10129 2 c-3 -3 -12 -4 -19
-1 -8 3 -5 6 6 6 11 1 17 -2 13 -5z m-1629 -58 c-10 -7 -18 -19 -18 -27 0 -10
-2 -11 -12 0 -11 10 -9 15 6 27 11 8 25 14 30 14 6 0 3 -7 -6 -14z m-853 -16
c-3 -5 -12 -10 -18 -10 -7 0 -6 4 3 10 19 12 23 12 15 0z m428 -20 c3 0 13 7
22 16 15 15 17 15 31 -5 8 -11 21 -21 28 -21 12 0 18 -14 28 -74 2 -10 -3 -21
-11 -24 -9 -3 -11 0 -6 9 4 8 -2 4 -13 -8 -28 -28 -48 -22 -112 37 l-54 49 25
24 c20 20 26 21 40 10 8 -7 18 -13 22 -13z m-356 -92 c-3 -8 -6 -5 -6 6 -1 11
2 17 5 13 3 -3 4 -12 1 -19z m1648 -78 c0 -52 -2 -55 -26 -58 -31 -4 -54 21
-44 45 5 10 7 24 6 32 -5 28 9 42 36 39 27 -3 28 -5 28 -58z m53 0 c-12 -33
-25 -60 -30 -60 -4 0 3 27 14 60 12 33 25 60 30 60 4 0 -3 -27 -14 -60z m72 0
c0 -33 -4 -60 -10 -60 -5 0 -10 24 -10 54 0 34 -5 56 -12 59 -7 3 -3 6 10 6
20 1 22 -3 22 -59z m100 41 c14 -26 13 -74 -2 -89 -18 -18 -56 -14 -68 7 -23
45 -4 101 35 101 14 0 29 -8 35 -19z m4778 7 c7 -7 12 -21 12 -31 0 -23 -37
-77 -53 -77 -8 0 -8 3 1 12 17 17 15 25 -8 31 -37 10 -20 77 20 77 9 0 21 -5
28 -12z m116 -20 c20 -58 -28 -112 -70 -78 -17 15 -19 81 -2 98 22 22 62 10
72 -20z m74 4 c4 -28 -24 -41 -44 -20 -20 20 -7 50 20 46 13 -2 22 -12 24 -26z
m55 15 c-23 -39 -77 -107 -85 -107 -10 0 74 119 85 119 4 1 4 -5 0 -12z m4725
-49 c-2 -60 -2 -61 -5 -13 -3 31 -10 55 -20 63 -15 11 -15 12 5 12 20 0 22 -4
20 -62z m81 55 c-16 -2 -29 -12 -32 -24 -4 -15 -1 -19 12 -14 23 7 43 -17 39
-47 -2 -15 -11 -24 -26 -26 -26 -4 -55 15 -46 30 3 5 12 1 19 -9 13 -17 15
-17 31 -1 21 21 9 41 -22 35 -18 -3 -24 0 -24 14 0 36 12 49 44 48 28 -2 29
-2 5 -6z m89 -21 c4 -28 -24 -41 -44 -20 -20 20 -7 50 20 46 13 -2 22 -12 24
-26z m55 15 c-23 -39 -77 -107 -85 -107 -10 0 74 119 85 119 4 1 4 -5 0 -12z
m-11262 -6 c5 -39 4 -55 -7 -66 -8 -7 -14 -38 -15 -69 -2 -53 -4 -56 -27 -56
-25 0 -25 1 -19 68 4 37 7 79 7 94 0 17 6 28 18 30 26 6 42 5 43 -1z m1630 -7
c9 -11 10 -20 2 -32 -7 -12 -7 -22 0 -34 16 -24 -8 -48 -49 -48 l-34 0 0 65 0
65 34 0 c18 0 39 -7 47 -16z m4992 6 c-48 -19 -42 -94 10 -109 25 -7 27 -9 10
-10 -29 -1 -63 32 -63 62 0 30 27 67 48 66 13 0 12 -2 -5 -9z m58 -7 c13 -17
13 -17 -6 -3 -11 8 -22 16 -24 17 -2 2 0 3 6 3 6 0 17 -8 24 -17z m4933 9 c2
-4 -11 -6 -29 -4 l-34 4 -4 -63 -3 -64 -2 68 -2 67 34 0 c19 0 37 -4 40 -8z
m390 -14 c16 -26 -4 -52 -42 -56 -25 -3 -32 -8 -35 -30 -2 -15 -5 4 -6 41 l-1
68 36 -3 c22 -2 42 -10 48 -20z m-12678 -15 c-10 -10 -19 5 -10 18 6 11 8 11
12 0 2 -7 1 -15 -2 -18z m7838 -5 c8 -5 7 -8 -1 -8 -8 0 -14 -16 -15 -42 l-1
-43 -4 40 c-3 22 -10 43 -16 47 -9 6 -9 8 1 8 6 0 12 8 13 18 0 13 2 14 6 2 3
-8 11 -18 17 -22z m-5487 -65 c-2 -16 -4 -5 -4 22 0 28 2 40 4 28 2 -13 2 -35
0 -50z m97 58 c3 -4 -6 -6 -19 -3 -14 2 -25 6 -25 8 0 8 39 4 44 -5z m5014 -3
c7 -7 12 -16 12 -22 0 -5 -6 -2 -13 8 -21 28 -52 17 -52 -19 0 -36 31 -47 53
-19 8 11 12 13 10 5 -13 -43 -70 -37 -76 8 -6 41 38 67 66 39z m108 -36 l1
-42 -4 41 c-4 35 -7 40 -26 37 -17 -2 -23 -12 -28 -43 l-6 -40 -2 42 c-1 43 8
53 44 50 16 -2 20 -10 21 -45z m62 41 c-10 -2 -18 -12 -18 -20 0 -9 -3 -14 -6
-10 -12 11 5 37 23 36 17 -1 17 -2 1 -6z m59 -60 c-2 -16 -4 -5 -4 22 0 28 2
40 4 28 2 -13 2 -35 0 -50z m61 60 c-10 -2 -18 -12 -18 -20 0 -9 -3 -14 -6
-10 -12 11 5 37 23 36 17 -1 17 -2 1 -6z m170 -5 c7 -7 12 -17 12 -22 0 -6 -5
-3 -11 7 -15 26 -46 21 -57 -10 -6 -16 -11 -22 -11 -15 -3 41 40 67 67 40z
m108 -36 l1 -42 -4 41 c-4 35 -7 40 -26 37 -17 -2 -23 -12 -28 -43 l-6 -40 -2
42 c-1 43 8 53 44 50 16 -2 20 -10 21 -45z m98 39 c4 -5 -4 -7 -15 -4 -15 4
-27 0 -35 -12 -8 -11 -14 -14 -14 -9 0 26 51 46 64 25z m4290 0 c3 -4 -6 -6
-19 -3 -29 5 -33 -12 -7 -27 9 -6 12 -11 6 -11 -17 0 -37 27 -29 40 7 12 42
13 49 1z m83 -9 c-15 -16 -15 -21 -2 -38 8 -10 15 -23 15 -29 0 -5 -7 1 -16
13 -9 13 -22 21 -30 18 -22 -8 -17 3 14 29 32 29 42 32 19 7z m261 6 c7 -7 12
-17 12 -22 0 -6 -5 -3 -11 7 -15 26 -46 21 -57 -10 -6 -16 -11 -22 -11 -15 -3
41 40 67 67 40z m69 -1 c-9 -7 -18 -28 -20 -47 -3 -31 -4 -30 -5 10 -2 40 1
46 19 47 19 2 19 0 6 -10z m94 -4 c13 -16 12 -17 -3 -4 -10 7 -27 11 -38 8
-11 -3 -18 -1 -14 4 9 15 41 10 55 -8z m97 5 c7 -7 12 -16 12 -22 0 -5 -6 -2
-13 8 -21 28 -52 17 -52 -19 0 -26 4 -30 27 -30 14 1 24 -3 22 -7 -8 -12 -38
-10 -52 4 -26 26 -7 78 28 78 9 0 21 -5 28 -12z m42 -43 l-8 -40 -1 50 c-1 29
3 45 8 40 5 -6 6 -28 1 -50z m59 41 c7 -8 11 -30 8 -48 l-4 -33 -1 38 c-2 29
-7 40 -24 47 -16 6 -18 9 -7 9 9 1 22 -5 28 -13z m64 7 c-7 -2 -19 -2 -25 0
-7 3 -2 5 12 5 14 0 19 -2 13 -5z m93 -41 l1 -42 -4 39 c-3 31 -9 41 -26 45
-18 4 -18 4 3 3 22 -2 25 -7 26 -45z m81 42 c-3 -3 -12 -4 -19 -1 -8 3 -5 6 6
6 11 1 17 -2 13 -5z m32 -46 c-1 -29 -3 -45 -6 -35 -3 10 -10 14 -16 11 -8 -5
-8 -2 1 7 6 7 12 26 12 41 0 15 2 28 5 28 3 0 4 -24 4 -52z m89 40 c7 -7 12
-17 12 -22 0 -6 -5 -3 -11 7 -15 26 -46 21 -57 -10 -6 -16 -11 -22 -11 -15 -3
41 40 67 67 40z m-11092 -33 c0 -25 -3 -31 -9 -20 -7 13 -2 55 7 55 1 0 2 -16
2 -35z m4614 20 c17 -20 5 -45 -20 -45 -11 0 -23 7 -26 15 -6 15 11 45 26 45
4 0 13 -7 20 -15z m4950 0 c17 -20 5 -45 -20 -45 -11 0 -23 7 -26 15 -6 15 11
45 26 45 4 0 13 -7 20 -15z m333 4 c-9 -9 -8 -19 3 -40 8 -16 12 -29 10 -29
-3 0 -13 14 -22 31 -13 26 -14 33 -2 40 19 12 24 11 11 -2z m-9826 -31 c-3 -8
-6 -5 -6 6 -1 11 2 17 5 13 3 -3 4 -12 1 -19z m5723 -13 c0 -5 -5 -3 -10 5 -5
8 -10 20 -10 25 0 6 5 3 10 -5 5 -8 10 -19 10 -25z m4677 13 c-3 -8 -6 -5 -6
6 -1 11 2 17 5 13 3 -3 4 -12 1 -19z m-4664 -34 c-10 -21 -25 -40 -33 -42 -12
-4 -12 -2 1 9 9 8 22 29 29 47 7 18 15 31 17 28 2 -2 -4 -21 -14 -42z m5040
39 c-19 -7 -16 -31 5 -36 15 -4 15 -5 0 -6 -9 0 -20 4 -23 9 -9 15 2 40 17 39
10 0 10 -2 1 -6z m-5882 -26 c-10 -9 -11 -8 -5 6 3 10 9 15 12 12 3 -3 0 -11
-7 -18z m758 -4 c11 3 19 1 15 -4 -13 -21 -64 -1 -64 25 0 5 6 2 14 -9 8 -12
20 -16 35 -12z m4308 5 c-3 -8 -6 -5 -6 6 -1 11 2 17 5 13 3 -3 4 -12 1 -19z
m503 -3 c-14 -16 -46 -20 -54 -6 -3 4 5 6 18 4 13 -3 27 0 30 6 4 6 10 11 13
11 3 0 0 -7 -7 -15z m-5289 -13 c-7 -2 -18 1 -23 6 -8 8 -4 9 13 5 13 -4 18
-8 10 -11z m120 0 c-7 -2 -18 1 -23 6 -8 8 -4 9 13 5 13 -4 18 -8 10 -11z
m145 0 c-10 -2 -22 0 -28 6 -6 6 0 7 19 4 21 -5 23 -7 9 -10z m4495 0 c-7 -2
-18 1 -23 6 -8 8 -4 9 13 5 13 -4 18 -8 10 -11z m345 0 c-10 -2 -22 0 -28 6
-6 6 0 7 19 4 21 -5 23 -7 9 -10z m720 0 c-10 -2 -22 0 -28 6 -6 6 0 7 19 4
21 -5 23 -7 9 -10z m-11029 2 c-3 -3 -12 -4 -19 -1 -8 3 -5 6 6 6 11 1 17 -2
13 -5z m10933 -31 c11 3 18 1 14 -4 -9 -15 -41 -10 -55 9 -13 15 -12 16 3 3
10 -7 27 -11 38 -8z m-12704 -80 c21 -28 17 -33 -26 -33 -36 0 -40 3 -40 25 0
20 5 25 26 25 15 0 33 -8 40 -17z m-36 -113 c0 -16 -7 -20 -35 -20 -19 0 -35
-4 -35 -10 0 -6 32 -10 77 -10 l77 0 -44 -44 c-43 -43 -46 -44 -93 -39 -58 7
-98 38 -95 74 1 13 -2 34 -6 47 -7 22 -6 22 73 22 74 0 81 -2 81 -20z m120 10
c0 -5 -9 -14 -20 -20 -15 -8 -20 -8 -21 2 0 10 -2 10 -6 1 -2 -7 -15 -13 -28
-13 -17 0 -22 5 -20 18 2 9 4 17 4 17 25 5 91 2 91 -5z m988 -2 c7 -7 12 -22
12 -34 0 -22 -38 -79 -48 -70 -2 3 1 12 8 21 10 13 9 15 -9 15 -14 0 -23 8
-27 25 -11 43 34 73 64 43z m60 -48 c-12 -33 -25 -60 -30 -60 -4 0 3 27 14 60
12 33 25 60 30 60 4 0 -3 -27 -14 -60z m72 0 c0 -33 -4 -60 -10 -60 -5 0 -10
24 -10 54 0 34 -5 56 -12 59 -7 3 -3 6 10 6 20 1 22 -3 22 -59z m99 46 c16
-20 17 -72 1 -91 -31 -37 -80 -7 -80 49 0 46 53 74 79 42z m4779 2 c7 -7 12
-21 12 -31 0 -23 -37 -77 -53 -77 -8 0 -8 3 1 12 17 17 15 25 -8 31 -37 10
-20 77 20 77 9 0 21 -5 28 -12z m82 3 c-14 -4 -26 -15 -28 -25 -2 -10 0 -16 6
-12 29 18 59 -23 41 -55 -14 -26 -62 -22 -67 5 -4 18 -3 18 12 3 20 -19 48
-11 44 12 -2 10 -13 16 -31 16 -28 -1 -31 5 -21 43 5 17 13 22 38 21 29 -1 29
-1 6 -8z m94 -6 c8 -23 -4 -45 -25 -45 -11 0 -22 7 -25 15 -9 23 3 45 25 45
10 0 21 -7 25 -15z m21 -45 c-41 -54 -68 -80 -49 -47 27 43 77 107 86 107 5 0
-12 -27 -37 -60z m4819 37 c9 -14 6 -26 -10 -54 -12 -21 -28 -39 -35 -41 -11
-4 -12 -2 -1 9 16 17 15 29 -3 29 -23 0 -38 36 -25 61 14 25 58 23 74 -4z m51
-34 c-20 -55 -41 -83 -32 -42 10 41 38 102 44 95 3 -3 -2 -27 -12 -53z m63 -5
c-2 -60 -2 -61 -5 -14 -3 31 -11 54 -21 63 -15 11 -15 12 6 13 21 0 22 -4 20
-62z m111 31 c28 -50 -7 -100 -58 -84 -28 9 -37 60 -16 91 21 32 54 29 74 -7z
m-9752 -76 c-2 -21 -4 -6 -4 32 0 39 2 55 4 38 2 -18 2 -50 0 -70z m590 86
c-10 -6 -22 -20 -27 -32 -6 -16 -9 -18 -9 -5 -1 19 25 48 42 48 7 0 4 -5 -6
-11z m63 -4 c7 -9 10 -18 6 -22 -3 -3 -6 -1 -6 6 0 6 -10 16 -22 21 -16 6 -18
9 -7 9 9 1 22 -6 29 -14z m4397 4 c-10 -6 -22 -20 -27 -32 -6 -16 -9 -18 -9
-5 -1 19 25 48 42 48 7 0 4 -5 -6 -11z m63 -4 c7 -9 10 -18 6 -22 -3 -3 -6 -1
-6 6 0 6 -10 16 -22 21 -16 6 -18 9 -7 9 9 1 22 -6 29 -14z m760 5 c0 -5 -2
-10 -4 -10 -3 0 -8 5 -11 10 -3 6 -1 10 4 10 6 0 11 -4 11 -10z m4220 -9 c13
-25 13 -27 -6 -45 -8 -9 -26 -16 -39 -16 -18 0 -25 -6 -28 -27 -2 -16 -5 2 -6
40 l-1 67 35 0 c24 0 37 -6 45 -19z m142 -44 c1 -31 -1 -59 -5 -63 -4 -4 -7
23 -7 61 0 81 9 83 12 2z m105 -34 c-2 -21 -4 -6 -4 32 0 39 2 55 4 38 2 -18
2 -50 0 -70z m307 75 c16 -26 -4 -52 -42 -56 -25 -3 -32 -8 -35 -30 -2 -15 -5
4 -6 41 l-1 68 36 -3 c22 -2 42 -10 48 -20z m-5384 -65 l-5 -48 -3 40 c-2 22
-9 43 -15 47 -9 6 -9 8 1 8 6 0 12 8 13 18 0 16 1 16 7 0 4 -10 5 -39 2 -65z
m1350 0 l-5 -48 -3 40 c-2 22 -9 43 -15 47 -9 6 -9 8 1 8 6 0 12 8 13 18 0 16
1 16 7 0 4 -10 5 -39 2 -65z m4554 45 c8 -5 7 -8 -1 -8 -8 0 -14 -16 -15 -42
l-1 -43 -4 40 c-3 22 -10 43 -16 47 -9 6 -9 8 1 8 6 0 12 8 13 18 0 13 2 14 6
2 3 -8 11 -18 17 -22z m-10165 -6 c-5 -2 -10 -22 -11 -45 l-1 -42 -6 45 c-8
57 -4 74 14 57 7 -7 9 -13 4 -15z m4842 1 c-12 -20 -14 -14 -5 12 4 9 9 14 11
11 3 -2 0 -13 -6 -23z m-7851 -19 c0 -8 -4 -12 -10 -9 -5 3 -10 13 -10 21 0 8
5 12 10 9 6 -3 10 -13 10 -21z m2109 12 c7 -8 11 -30 8 -48 l-4 -33 -1 38 c-2
29 -7 40 -24 47 -16 6 -18 9 -7 9 9 1 22 -5 28 -13z m58 -6 c3 -10 2 -11 -4
-4 -4 6 -15 14 -23 17 -11 5 -9 6 4 4 11 -1 21 -9 23 -17z m99 -25 l1 -40 -4
39 c-4 34 -7 38 -28 33 -14 -2 -22 0 -19 5 3 5 16 8 27 6 18 -2 22 -10 23 -43z
m74 36 c-28 -8 -40 -48 -18 -63 10 -8 10 -9 -2 -5 -19 5 -25 44 -10 63 7 7 22
14 34 13 18 -1 18 -2 -4 -8z m29 -107 c-15 -19 -43 -18 -60 3 -13 15 -12 15 7
3 27 -17 54 -7 54 20 0 14 -4 19 -12 14 -10 -6 -10 -4 0 7 6 7 13 27 14 44 1
16 3 6 5 -23 3 -32 -1 -59 -8 -68z m88 110 c-3 -3 -12 -4 -19 -1 -8 3 -5 6 6
6 11 1 17 -2 13 -5z m323 -40 c0 -25 -4 -43 -8 -40 -7 4 -4 86 4 86 2 0 4 -21
4 -46z m83 39 c3 -5 -8 -8 -23 -8 -15 0 -26 3 -23 8 2 4 13 7 23 7 10 0 21 -3
23 -7z m4353 -41 l1 -42 -4 39 c-3 31 -9 41 -26 45 -18 4 -18 4 3 3 22 -2 25
-7 26 -45z m148 40 c2 -4 -8 -8 -22 -7 -22 0 -28 -5 -30 -28 -3 -21 2 -29 20
-36 14 -6 17 -10 8 -10 -22 -1 -40 19 -40 44 0 12 5 26 12 33 14 14 44 16 52
4z m76 -1 c-28 -8 -40 -48 -18 -63 10 -8 10 -9 -2 -5 -19 5 -25 44 -10 63 7 7
22 14 34 13 18 -1 18 -2 -4 -8z m29 -107 c-15 -19 -43 -18 -60 3 -13 15 -12
15 7 3 27 -17 54 -7 54 20 0 14 -4 19 -12 14 -10 -6 -10 -4 0 7 6 7 13 27 14
44 1 16 3 6 5 -23 3 -32 -1 -59 -8 -68z m109 104 c7 -7 12 -21 12 -33 0 -42
-45 -60 -71 -28 -13 15 -12 15 7 3 29 -18 54 -6 54 25 0 31 -25 43 -54 25 -19
-12 -20 -12 -7 3 16 20 42 22 59 5z m69 -1 c-9 -7 -18 -28 -20 -47 -3 -31 -4
-30 -5 10 -2 40 1 46 19 47 19 2 19 0 6 -10z m437 7 c10 -4 16 -17 15 -38 l-1
-31 -7 30 c-4 21 -13 31 -29 33 -27 4 -40 -23 -23 -49 6 -11 7 -19 1 -19 -16
0 -23 49 -10 65 13 16 29 19 54 9z m56 -49 l-8 -40 -1 50 c-1 29 3 45 8 40 5
-6 6 -28 1 -50z m59 41 c7 -8 11 -30 8 -48 l-4 -33 -1 38 c-2 29 -7 40 -24 47
-16 6 -18 9 -7 9 9 1 22 -5 28 -13z m100 0 c7 -8 11 -30 8 -48 l-4 -33 -1 38
c-2 29 -7 40 -24 47 -16 6 -18 9 -7 9 9 1 22 -5 28 -13z m58 -6 c3 -10 2 -11
-4 -4 -4 6 -15 14 -23 17 -11 5 -9 6 4 4 11 -1 21 -9 23 -17z m101 8 c7 -7 12
-16 12 -22 0 -5 -6 -2 -13 8 -21 28 -52 17 -52 -19 0 -26 4 -30 27 -30 14 1
24 -3 22 -7 -8 -12 -38 -10 -52 4 -26 26 -7 78 28 78 9 0 21 -5 28 -12z m108
-38 l2 -45 -7 39 c-4 26 -13 42 -26 47 -18 8 -17 8 5 6 22 -2 25 -7 26 -47z
m3590 -33 c9 -3 8 -4 -3 -3 -14 1 -18 11 -19 44 l-1 42 4 -39 c2 -23 10 -42
19 -44z m41 16 c-2 -16 -4 -5 -4 22 0 28 2 40 4 28 2 -13 2 -35 0 -50z m114
46 c16 -31 -3 -69 -33 -68 -23 2 -23 2 -1 6 41 8 41 68 0 76 l-22 4 22 2 c13
0 27 -7 34 -20z m76 -46 c-2 -16 -4 -5 -4 22 0 28 2 40 4 28 2 -13 2 -35 0
-50z m97 58 c4 -5 -4 -7 -15 -4 -15 4 -27 0 -35 -12 -8 -11 -14 -14 -14 -9 0
26 51 46 64 25z m243 3 c-3 -3 -12 -4 -19 -1 -8 3 -5 6 6 6 11 1 17 -2 13 -5z
m80 -7 c-9 -7 -18 -28 -20 -47 -3 -31 -4 -30 -5 10 -2 40 1 46 19 47 19 2 19
0 6 -10z m97 4 c3 -4 -6 -6 -19 -3 -14 2 -25 6 -25 8 0 8 39 4 44 -5z m94 -3
c7 -7 12 -17 12 -22 0 -6 -5 -3 -11 7 -15 26 -46 21 -57 -10 -6 -16 -11 -22
-11 -15 -3 41 40 67 67 40z m110 0 c17 -17 15 -53 -3 -68 -20 -16 -65 -4 -65
17 0 15 1 15 13 -1 21 -28 52 -17 52 19 0 36 -31 47 -52 19 -7 -10 -13 -13
-13 -8 0 15 22 34 40 34 9 0 21 -5 28 -12z m99 -55 c-2 -16 -4 -5 -4 22 0 28
2 40 4 28 2 -13 2 -35 0 -50z m101 55 c7 -7 12 -21 12 -33 0 -42 -45 -60 -71
-28 -13 15 -12 15 7 3 29 -18 54 -6 54 25 0 31 -25 43 -54 25 -19 -12 -20 -12
-7 3 16 20 42 22 59 5z m108 -38 l2 -45 -7 39 c-4 26 -13 42 -26 47 -18 8 -17
8 5 6 22 -2 25 -7 26 -47z m-11359 -22 c-2 -13 -4 -3 -4 22 0 25 2 35 4 23 2
-13 2 -33 0 -45z m420 40 c-3 -8 -6 -5 -6 6 -1 11 2 17 5 13 3 -3 4 -12 1 -19z
m200 0 c-3 -8 -6 -5 -6 6 -1 11 2 17 5 13 3 -3 4 -12 1 -19z m4091 -12 c-2
-13 -10 -21 -23 -21 -23 0 -33 34 -14 45 20 13 40 -1 37 -24z m932 -1 c0 -5
-5 -3 -10 5 -5 8 -10 20 -10 25 0 6 5 3 10 -5 5 -8 10 -19 10 -25z m547 -27
c-2 -13 -4 -3 -4 22 0 25 2 35 4 23 2 -13 2 -33 0 -45z m260 40 c-3 -8 -6 -5
-6 6 -1 11 2 17 5 13 3 -3 4 -12 1 -19z m4240 0 c-3 -8 -6 -5 -6 6 -1 11 2 17
5 13 3 -3 4 -12 1 -19z m610 0 c-3 -8 -6 -5 -6 6 -1 11 2 17 5 13 3 -3 4 -12
1 -19z m-10266 -15 c-12 -20 -14 -14 -5 12 4 9 9 14 11 11 3 -2 0 -13 -6 -23z
m4823 -23 l7 -25 -15 25 c-9 14 -15 32 -15 40 0 13 1 13 8 0 5 -8 12 -26 15
-40z m-5300 -8 c21 -3 27 0 24 10 -4 8 1 14 11 14 9 0 17 -7 17 -16 0 -22 -64
-25 -88 -4 -10 10 -18 24 -18 33 0 10 5 7 13 -9 8 -16 23 -26 41 -28z m4455 0
c12 -2 31 4 42 14 23 21 26 12 3 -10 -30 -30 -94 -7 -94 33 0 10 5 7 13 -9 7
-14 23 -26 36 -28z m-4249 23 c-10 -12 -8 -16 11 -24 23 -9 23 -10 3 -10 -25
-1 -38 21 -21 38 16 16 22 13 7 -4z m4353 8 c-19 -7 -16 -31 5 -36 15 -4 15
-5 0 -6 -9 0 -20 4 -23 9 -9 15 2 40 17 39 10 0 10 -2 1 -6z m-4940 -37 c18
-4 18 -4 -3 -3 -14 1 -25 8 -26 17 0 8 1 10 3 3 2 -6 14 -14 26 -17z m843 -4
c-4 -3 -11 0 -16 8 -15 24 -11 33 6 15 9 -9 13 -19 10 -23z m9393 11 c11 3 19
1 15 -4 -13 -21 -64 -1 -64 25 0 5 6 2 14 -9 8 -12 20 -16 35 -12z m-4749 6
c0 8 2 12 5 9 3 -3 2 -13 -1 -22 -5 -14 -9 -15 -15 -4 -5 7 -9 18 -9 23 0 6 5
3 10 -5 8 -12 10 -12 10 -1z m101 -12 c-10 -9 -11 -8 -5 6 3 10 9 15 12 12 3
-3 0 -11 -7 -18z m-5080 -5 c-7 -2 -18 1 -23 6 -8 8 -4 9 13 5 13 -4 18 -8 10
-11z m10235 0 c-10 -2 -22 0 -28 6 -6 6 0 7 19 4 21 -5 23 -7 9 -10z m-10519
2 c-3 -3 -12 -4 -19 -1 -8 3 -5 6 6 6 11 1 17 -2 13 -5z m10270 0 c-3 -3 -12
-4 -19 -1 -8 3 -5 6 6 6 11 1 17 -2 13 -5z m160 0 c-3 -3 -12 -4 -19 -1 -8 3
-5 6 6 6 11 1 17 -2 13 -5z m-4797 -29 c-17 -20 -44 -19 -61 3 -11 14 -11 15
1 5 19 -18 49 -16 57 2 3 9 8 14 11 11 3 -3 -1 -12 -8 -21z m-385 -5 c-3 -5
-12 -10 -18 -10 -7 0 -6 4 3 10 19 12 23 12 15 0z m-6195 -184 c0 -23 -42
-112 -47 -99 -2 6 3 25 11 42 24 45 20 59 -16 64 -29 3 -27 4 10 5 30 2 42 -2
42 -12z m29 -50 c-12 -31 -25 -56 -29 -56 -5 0 1 24 12 52 23 60 28 71 34 65
3 -2 -5 -29 -17 -61z m71 4 c0 -33 -4 -60 -10 -60 -5 0 -10 24 -10 54 0 34 -5
56 -12 59 -7 3 -3 6 10 6 20 1 22 -3 22 -59z m99 46 c16 -20 17 -72 1 -91 -31
-37 -80 -7 -80 49 0 46 53 74 79 42z m518 -76 c4 0 18 10 32 23 25 21 25 21 8
0 -17 -20 -18 -23 -2 -50 16 -27 16 -27 0 -5 -10 12 -22 22 -27 22 -5 0 -13
-10 -18 -22 -6 -17 -8 -4 -8 47 1 45 3 55 5 28 2 -24 7 -43 10 -43z m166 70
c-48 -19 -42 -94 10 -109 25 -7 27 -9 10 -10 -29 -1 -63 32 -63 62 0 30 27 67
48 66 13 0 12 -2 -5 -9z m58 -7 c13 -17 13 -17 -6 -3 -11 8 -22 16 -24 17 -2
2 0 3 6 3 6 0 17 -8 24 -17z m279 -50 c0 -36 -3 -64 -6 -60 -9 9 -8 127 1 127
3 0 5 -30 5 -67z m101 24 c10 3 26 0 34 -7 29 -24 12 -81 -25 -79 -9 0 -6 4 8
10 18 7 23 15 20 36 -2 22 -8 28 -28 28 -21 0 -26 -6 -31 -35 -5 -25 -6 -17
-6 30 0 36 2 53 4 39 3 -21 9 -26 24 -22z m126 -54 c-2 -21 -4 -6 -4 32 0 39
2 55 4 38 2 -18 2 -50 0 -70z m-3023 43 c41 -17 64 -65 48 -101 -10 -21 -17
-23 -64 -22 -47 2 -53 5 -56 25 -3 18 2 23 27 28 17 4 31 11 31 17 0 5 -13 7
-31 3 -27 -5 -30 -4 -19 9 29 35 70 10 70 -43 0 -43 24 -38 28 6 6 60 -68 95
-116 55 -23 -20 -29 -46 -19 -84 8 -32 52 -53 93 -44 22 5 25 4 14 -4 -24 -17
-75 -13 -98 9 -48 45 -39 114 18 142 42 21 34 21 74 4z m566 -38 l1 -53 18 23
c11 12 25 22 32 22 8 0 6 -7 -6 -19 -16 -19 -16 -21 5 -50 15 -22 17 -31 8
-31 -7 0 -19 9 -26 20 -7 11 -17 20 -22 20 -6 0 -10 -9 -10 -20 0 -11 -4 -20
-10 -20 -6 0 -10 33 -10 80 0 47 4 80 10 80 6 0 10 -24 10 -52z m242 -4 c39
10 58 -10 58 -59 0 -25 -4 -45 -10 -45 -5 0 -10 18 -10 39 0 28 -5 41 -17 45
-22 9 -43 -18 -43 -56 0 -15 -4 -28 -10 -28 -6 0 -10 31 -10 73 0 75 12 114
18 57 3 -27 7 -31 24 -26z m108 -24 c0 -47 -4 -80 -10 -80 -6 0 -10 33 -10 80
0 47 4 80 10 80 6 0 10 -33 10 -80z m1227 13 c-2 -16 -4 -5 -4 22 0 28 2 40 4
28 2 -13 2 -35 0 -50z m99 19 l1 -42 -4 41 c-4 35 -7 40 -26 37 -17 -2 -23
-12 -28 -43 l-6 -40 -2 42 c-1 43 8 53 44 50 16 -2 20 -10 21 -45z m341 35
c-9 -7 -18 -28 -20 -47 -3 -31 -4 -30 -5 10 -2 40 1 46 19 47 19 2 19 0 6 -10z
m80 7 c-3 -3 -12 -4 -19 -1 -8 3 -5 6 6 6 11 1 17 -2 13 -5z m100 0 c-3 -3
-12 -4 -19 -1 -8 3 -5 6 6 6 11 1 17 -2 13 -5z m70 -61 c-2 -16 -4 -5 -4 22 0
28 2 40 4 28 2 -13 2 -35 0 -50z m150 0 c-2 -16 -4 -5 -4 22 0 28 2 40 4 28 2
-13 2 -35 0 -50z m80 0 c-2 -16 -4 -5 -4 22 0 28 2 40 4 28 2 -13 2 -35 0 -50z
m56 60 c-7 -2 -19 -2 -25 0 -7 3 -2 5 12 5 14 0 19 -2 13 -5z m35 -18 c-3 -3
-9 2 -12 12 -6 14 -5 15 5 6 7 -7 10 -15 7 -18z m53 -2 c-12 -20 -14 -14 -5
12 4 9 9 14 11 11 3 -2 0 -13 -6 -23z m-3001 7 c0 -5 -4 -10 -10 -10 -5 0 -10
5 -10 10 0 6 5 10 10 10 6 0 10 -4 10 -10z m760 0 c0 -5 -4 -10 -9 -10 -6 0
-13 5 -16 10 -3 6 1 10 9 10 9 0 16 -4 16 -10z m1717 -12 c-3 -8 -6 -5 -6 6
-1 11 2 17 5 13 3 -3 4 -12 1 -19z m-2227 -14 c0 -8 6 -14 13 -15 10 0 10 -2
0 -6 -8 -3 -13 -23 -13 -49 0 -24 -4 -44 -10 -44 -5 0 -10 18 -10 39 0 22 -4
42 -9 45 -5 4 -4 16 2 30 12 25 27 25 27 0z m-160 -12 c0 -4 -9 -13 -20 -20
-14 -8 -20 -23 -20 -47 0 -19 -4 -35 -10 -35 -5 0 -10 22 -10 49 0 51 -1 50
53 60 4 0 7 -2 7 -7z m81 -2 c14 -8 19 -21 19 -54 l0 -44 -42 2 c-39 1 -43 3
-43 26 0 21 5 26 33 28 17 2 32 8 32 13 0 16 -29 22 -45 9 -22 -18 -29 -6 -10
14 19 19 29 20 56 6z m347 -6 c24 -17 30 -62 10 -82 -7 -7 -24 -12 -38 -12
-33 0 -50 17 -50 51 0 24 30 59 50 59 3 0 16 -7 28 -16z m1793 -7 c-10 -9 -11
-8 -5 6 3 10 9 15 12 12 3 -3 0 -11 -7 -18z m-2414 -24 l15 -38 15 38 c8 20
19 37 24 37 12 0 12 -2 -11 -54 -19 -46 -33 -57 -43 -33 -3 6 -12 29 -21 50
-10 23 -12 37 -6 37 6 0 18 -17 27 -37z m103 -13 c0 -27 -4 -50 -10 -50 -5 0
-10 23 -10 50 0 28 5 50 10 50 6 0 10 -22 10 -50z m760 0 c0 -27 -4 -50 -10
-50 -5 0 -10 23 -10 50 0 28 5 50 10 50 6 0 10 -22 10 -50z m1795 22 c-6 -7
-45 9 -45 18 0 4 11 3 24 -3 14 -7 23 -13 21 -15z m-645 2 c0 -2 -16 -4 -35
-4 -19 0 -35 4 -35 8 0 4 16 6 35 4 19 -2 35 -6 35 -8z m1061 -23 c-7 -12 -19
-20 -29 -20 -16 1 -16 2 1 6 17 4 21 15 17 43 -1 11 1 12 10 4 9 -9 9 -17 1
-33z m-514 23 c-3 -3 -12 -4 -19 -1 -8 3 -5 6 6 6 11 1 17 -2 13 -5z m-2156
-67 c-13 -13 -26 -3 -16 12 3 6 11 8 17 5 6 -4 6 -10 -1 -17z m169 -202 c22 0
25 -4 26 -40 l1 -40 -4 38 c-4 33 -7 38 -26 35 -17 -2 -23 -12 -28 -43 -5 -31
-6 -24 -6 30 -1 39 2 59 6 45 4 -18 13 -25 31 -25z m67 -52 c-2 -21 -4 -6 -4
32 0 39 2 55 4 38 2 -18 2 -50 0 -70z m-590 -10 c-2 -16 -4 -5 -4 22 0 28 2
40 4 28 2 -13 2 -35 0 -50z m60 54 c-9 -7 -18 -28 -20 -47 -3 -31 -4 -30 -5
10 -2 40 1 46 19 47 19 2 19 0 6 -10z m91 1 c7 -7 12 -28 12 -47 0 -43 -14
-32 -14 12 -1 28 -4 32 -28 32 -14 -1 -24 3 -22 7 8 12 38 10 52 -4z m65 5
c-7 -2 -19 -2 -25 0 -7 3 -2 5 12 5 14 0 19 -2 13 -5z m124 -11 c-15 -16 -15
-21 -2 -38 8 -10 15 -23 15 -29 0 -5 -7 1 -16 13 -9 13 -22 21 -30 18 -22 -8
-17 3 14 29 32 29 42 32 19 7z m101 6 c7 -7 12 -16 12 -22 0 -5 -6 -2 -13 8
-21 28 -52 17 -52 -19 0 -36 31 -47 53 -19 8 11 12 13 10 5 -13 -43 -70 -37
-76 8 -6 41 38 67 66 39z m189 -55 c-2 -16 -4 -5 -4 22 0 28 2 40 4 28 2 -13
2 -35 0 -50z m-707 12 c0 -5 -5 -3 -10 5 -5 8 -10 20 -10 25 0 6 5 3 10 -5 5
-8 10 -19 10 -25z m193 8 c-19 -7 -16 -31 5 -36 15 -4 15 -5 0 -6 -9 0 -20 4
-23 9 -9 15 2 40 17 39 10 0 10 -2 1 -6z m-173 -33 c0 -5 -4 -10 -10 -10 -5 0
-10 5 -10 10 0 6 5 10 10 10 6 0 10 -4 10 -10z m-213 -1041 c31 -26 7 -69 -39
-69 -23 0 -28 -4 -28 -25 0 -14 -4 -25 -10 -25 -12 0 -14 123 -3 134 10 10 62
-1 80 -15z m243 11 c0 -5 -4 -10 -10 -10 -5 0 -10 -7 -10 -15 0 -10 10 -15 30
-15 29 0 30 -2 30 -45 0 -25 -4 -45 -10 -45 -5 0 -10 18 -10 40 0 33 -3 40
-20 40 -17 0 -20 -7 -20 -40 0 -22 -4 -40 -9 -40 -15 0 -17 82 -3 113 12 26
32 37 32 17z m80 -60 c0 -40 -4 -70 -10 -70 -6 0 -10 30 -10 70 0 40 4 70 10
70 6 0 10 -30 10 -70z m250 55 c7 -9 9 -19 5 -23 -4 -4 -10 -1 -12 6 -3 6 -13
12 -24 12 -31 0 -23 -34 11 -47 35 -13 47 -37 29 -59 -18 -22 -73 -15 -77 11
-3 16 -1 18 9 8 18 -18 59 -16 59 1 0 8 -16 20 -35 26 -27 9 -35 17 -35 35 0
38 47 58 70 30z m5185 5 c4 -6 -8 -10 -29 -10 -29 0 -36 -4 -36 -20 0 -16 7
-20 30 -20 17 0 30 -4 30 -10 0 -5 -13 -10 -30 -10 -23 0 -30 -4 -30 -20 0
-15 7 -20 29 -20 17 0 33 -4 36 -10 4 -6 -12 -10 -39 -10 l-46 0 0 63 c0 35 3
67 7 70 10 11 71 8 78 -3z m1122 -11 c17 -15 17 -34 -2 -49 -13 -11 -13 -15 1
-41 8 -17 10 -29 4 -29 -6 0 -16 11 -22 25 -6 14 -19 25 -30 25 -13 0 -18 -7
-18 -25 0 -14 -4 -25 -10 -25 -12 0 -14 123 -3 134 10 10 62 -1 80 -15z m4645
-2 c10 -15 10 -19 -1 -36 -6 -9 -5 -21 2 -32 17 -27 -8 -49 -54 -49 l-39 0 0
63 c0 35 3 67 7 71 11 10 76 -3 85 -17z m388 -46 l0 -69 -41 2 c-47 1 -63 23
-48 65 8 19 15 22 39 19 27 -4 30 -2 30 24 0 15 5 28 10 28 6 0 10 -30 10 -69z
m145 53 c19 -20 12 -32 -10 -14 -8 7 -22 10 -30 6 -26 -10 -16 -33 18 -42 58
-17 42 -79 -20 -72 -19 2 -29 10 -31 23 -3 16 -1 18 9 8 20 -20 61 -17 57 4
-2 10 -12 19 -23 21 -45 9 -61 52 -27 71 24 15 38 13 57 -5z m160 7 c3 -5 1
-12 -5 -16 -5 -3 -10 1 -10 9 0 18 6 21 15 7z m205 -22 c0 -13 7 -19 23 -19
29 0 47 -18 47 -46 0 -29 -20 -44 -58 -41 l-32 2 0 68 c0 43 4 66 10 62 6 -3
10 -15 10 -26z m150 -39 c0 -40 -4 -70 -10 -70 -6 0 -10 30 -10 70 0 40 4 70
10 70 6 0 10 -30 10 -70z m40 54 c0 -8 -5 -12 -10 -9 -6 4 -8 11 -5 16 9 14
15 11 15 -7z m-8189 -18 c10 -20 8 -31 -11 -60 -12 -20 -27 -36 -33 -36 -8 0
-7 4 1 12 16 16 15 28 -3 28 -21 0 -34 31 -24 58 12 31 56 30 70 -2z m53 -33
c-18 -49 -34 -76 -34 -56 0 6 6 26 14 44 7 19 16 43 20 53 3 10 9 16 12 13 3
-3 -2 -27 -12 -54z m64 -5 c-2 -60 -2 -61 -5 -13 -3 31 -10 55 -20 63 -15 11
-15 12 5 12 20 0 22 -4 20 -62z m108 37 c38 -58 -25 -129 -68 -75 -22 27 -23
49 -2 78 20 29 50 28 70 -3z m5535 1 c10 -20 8 -31 -11 -60 -12 -20 -27 -36
-33 -36 -8 0 -7 4 1 12 16 16 15 28 -3 28 -21 0 -34 31 -24 58 12 31 56 30 70
-2z m53 -33 c-18 -49 -34 -76 -34 -56 0 6 6 26 14 44 7 19 16 43 20 53 3 10 9
16 12 13 3 -3 -2 -27 -12 -54z m64 -5 c-2 -60 -2 -61 -5 -13 -3 31 -10 55 -20
63 -15 11 -15 12 5 12 20 0 22 -4 20 -62z m108 37 c38 -58 -25 -129 -68 -75
-22 27 -23 49 -2 78 20 29 50 28 70 -3z m2124 21 c0 -3 -4 -8 -10 -11 -5 -3
-10 -1 -10 4 0 6 5 11 10 11 6 0 10 -2 10 -4z m3411 -20 c10 -20 8 -31 -11
-60 -12 -20 -27 -36 -33 -36 -8 0 -7 4 1 12 16 16 15 28 -3 28 -21 0 -34 31
-24 58 12 31 56 30 70 -2z m53 -33 c-18 -49 -34 -76 -34 -56 0 6 6 26 14 44 7
19 16 43 20 53 3 10 9 16 12 13 3 -3 -2 -27 -12 -54z m64 -5 c-2 -60 -2 -61
-5 -13 -3 31 -10 55 -20 63 -15 11 -15 12 5 12 20 0 22 -4 20 -62z m108 37
c38 -58 -25 -129 -68 -75 -22 27 -23 49 -2 78 20 29 50 28 70 -3z m-9453 -15
c8 0 7 -4 -1 -12 -7 -7 -13 -28 -14 -47 l-1 -36 -4 35 c-3 19 -9 41 -15 47 -7
9 -7 13 1 13 6 0 12 8 12 18 1 16 2 16 6 0 2 -10 10 -18 16 -18z m317 15 c0
-8 6 -15 13 -16 10 0 10 -2 0 -6 -8 -2 -13 -22 -13 -44 0 -21 -4 -39 -9 -39
-9 0 -18 74 -13 103 4 21 22 22 22 2z m5242 -2 c5 -29 -4 -103 -13 -103 -5 0
-9 18 -9 40 0 25 -5 40 -12 41 -10 0 -10 2 0 6 6 2 12 11 12 19 0 20 18 18 22
-3z m400 0 c5 -29 -4 -103 -13 -103 -5 0 -9 18 -9 40 0 25 -5 40 -12 41 -10 0
-10 2 0 6 6 2 12 11 12 19 0 20 18 18 22 -3z m-12606 -28 c-10 -8 -22 -29 -26
-47 -8 -32 -8 -32 -9 12 -1 43 1 46 27 48 25 1 26 1 8 -13z m104 -1 c22 -26 1
-69 -34 -69 -36 0 -58 30 -45 63 10 26 59 31 79 6z m248 4 c23 -23 13 -38 -25
-38 -35 0 -36 -1 -20 -17 13 -13 19 -14 29 -5 17 17 33 15 18 -3 -34 -41 -96
6 -71 54 13 23 50 28 69 9z m262 -3 c14 -17 0 -21 -16 -5 -15 15 -44 1 -44
-20 0 -25 22 -41 40 -30 23 15 34 12 20 -5 -34 -41 -96 6 -71 54 14 25 53 28
71 6z m110 -4 c10 -21 4 -51 -14 -63 -41 -28 -90 17 -67 61 15 28 66 29 81 2z
m66 4 c-10 -8 -22 -29 -26 -47 -8 -32 -8 -32 -9 12 -1 43 1 46 27 48 25 1 26
1 8 -13z m98 -1 c11 -29 6 -34 -31 -34 -35 0 -36 -1 -21 -17 14 -14 20 -14 33
-3 17 14 31 8 20 -9 -7 -12 -45 -14 -61 -3 -17 11 -22 35 -13 60 10 27 63 32
73 6z m4904 -31 c2 -24 -1 -43 -7 -43 -5 0 -11 17 -13 38 -2 25 -8 37 -18 37
-10 0 -16 -12 -18 -37 -4 -53 -22 -48 -22 6 l0 43 38 -1 c36 -1 37 -2 40 -43z
m112 -8 c0 -28 -5 -56 -12 -63 -17 -17 -53 -15 -69 5 -12 15 -12 16 6 9 34
-14 49 -12 53 7 3 15 0 18 -16 13 -23 -8 -52 16 -52 43 0 27 21 42 57 39 33
-2 33 -3 33 -53z m98 10 c3 -40 2 -41 -31 -43 -53 -4 -60 37 -9 52 12 4 22 12
22 17 0 13 -24 11 -38 -3 -7 -7 -12 -8 -12 -2 0 18 13 25 40 22 22 -3 25 -9
28 -43z m112 -16 c0 -43 -4 -58 -16 -63 -24 -9 -52 -7 -59 5 -11 17 3 23 20 9
12 -10 18 -10 30 0 22 19 18 31 -9 24 -41 -10 -74 44 -44 74 7 7 27 11 45 10
l33 -2 0 -57z m98 49 c23 -23 13 -38 -25 -38 -35 0 -36 -1 -20 -17 13 -13 20
-14 29 -5 17 17 33 15 18 -3 -34 -41 -96 6 -71 54 13 23 50 28 69 9z m164 -2
c11 -16 10 -76 -1 -76 -6 0 -11 17 -13 38 -2 25 -8 37 -18 37 -10 0 -16 -12
-18 -37 -2 -21 -7 -38 -12 -38 -5 0 -10 17 -12 38 -2 25 -8 37 -18 37 -10 0
-16 -12 -18 -37 -4 -53 -22 -47 -22 7 l0 45 63 -1 c34 -1 65 -6 69 -13z m102
-2 c11 -29 6 -34 -31 -34 -35 0 -36 -1 -21 -17 14 -14 20 -14 33 -3 17 14 31
8 20 -9 -7 -12 -45 -14 -61 -3 -17 11 -22 35 -13 60 10 27 63 32 73 6z m102
-34 c1 -28 0 -33 -3 -13 -8 62 -53 69 -53 7 0 -19 -4 -34 -10 -34 -5 0 -10 20
-10 44 l0 44 38 -1 c37 -2 37 -2 38 -47z m332 5 c3 -40 2 -41 -31 -43 -53 -4
-60 37 -9 52 12 4 22 12 22 17 0 13 -24 11 -38 -3 -7 -7 -12 -8 -12 -2 0 18
13 25 40 22 22 -3 25 -9 28 -43z m160 18 c3 -20 -1 -23 -27 -23 -17 0 -31 -4
-31 -9 0 -15 23 -19 44 -9 14 8 17 7 14 -4 -6 -18 -46 -23 -64 -8 -17 15 -18
52 -2 68 21 21 63 10 66 -15z m4450 13 c-11 -8 -18 -26 -18 -45 0 -17 -4 -31
-10 -31 -5 0 -10 20 -10 45 0 43 2 45 28 45 24 -1 25 -2 10 -14z m96 -2 c3 -9
6 -28 6 -44 0 -26 -3 -28 -37 -27 -51 3 -57 31 -11 50 28 13 30 16 14 22 -11
5 -21 3 -26 -6 -5 -7 -12 -10 -15 -7 -13 13 6 28 35 28 16 0 30 -7 34 -16z
m106 -4 c13 -24 13 -70 0 -70 -5 0 -10 15 -10 34 0 36 -19 53 -39 33 -6 -6
-11 -24 -11 -39 0 -15 -4 -28 -10 -28 -5 0 -10 20 -10 43 0 43 1 44 35 45 25
1 38 -4 45 -18z m320 -13 c0 -38 6 -48 26 -40 8 3 14 19 14 39 0 19 5 34 10
34 6 0 10 -20 10 -44 l0 -44 -37 1 c-37 2 -38 3 -41 45 -2 25 1 42 7 42 6 0
11 -15 11 -33z m110 -12 c0 -25 -4 -45 -10 -45 -5 0 -10 20 -10 45 0 25 5 45
10 45 6 0 10 -20 10 -45z m148 0 c3 -40 2 -41 -31 -43 -53 -4 -60 37 -9 52 12
4 22 12 22 17 0 13 -24 11 -38 -3 -7 -7 -12 -8 -12 -2 0 18 13 25 40 22 22 -3
25 -9 28 -43z m162 0 c0 -25 -4 -45 -10 -45 -5 0 -10 20 -10 45 0 25 5 45 10
45 6 0 10 -20 10 -45z m77 -22 c-2 -16 -4 -5 -4 22 0 28 2 40 4 28 2 -13 2
-35 0 -50z m112 35 l13 -33 14 34 c22 50 30 29 9 -26 -22 -58 -33 -73 -53 -73
-13 0 -12 3 3 14 21 15 21 15 -12 104 -11 28 14 9 26 -20z m-12657 -685 c22
-19 24 -56 4 -72 -13 -11 -12 -15 5 -32 43 -43 1 -109 -71 -109 -72 0 -114 66
-71 109 17 17 18 21 5 32 -29 24 -10 74 36 92 23 9 72 -1 92 -20z m197 13 c35
-19 51 -55 51 -116 0 -70 -35 -110 -95 -110 -36 0 -48 5 -69 31 -46 54 -32
164 25 195 31 17 54 17 88 0z m181 -6 c39 -39 14 -100 -41 -100 -34 0 -59 24
-59 56 0 29 33 64 60 64 11 0 29 -9 40 -20z m5784 5 c42 -43 20 -105 -37 -105
-42 0 -57 15 -57 56 0 52 59 83 94 49z m5325 4 c37 -13 51 -35 51 -82 0 -43
-71 -147 -101 -147 -24 0 -24 6 1 37 l20 26 -38 17 c-22 10 -42 25 -45 35 -18
44 4 98 47 115 28 12 28 12 65 -1z m365 -4 c42 -43 20 -105 -37 -105 -42 0
-57 15 -57 56 0 52 59 83 94 49z m-11341 -9 c-39 -66 -161 -215 -176 -216 -25
0 -24 2 68 124 49 64 87 105 98 106 12 0 16 -4 10 -14z m5247 -5 c0 -10 -11
-26 -25 -35 l-26 -17 31 -29 c37 -35 39 -72 5 -105 -42 -42 -135 -24 -135 26
0 25 27 24 49 -2 21 -26 57 -19 67 13 8 25 -25 58 -57 58 -28 0 -23 16 14 50
l32 29 -52 1 c-40 0 -53 4 -53 15 0 12 15 15 75 15 67 0 75 -2 75 -19z m270 4
c0 -11 -12 -15 -45 -15 -25 0 -45 -4 -45 -9 0 -5 -3 -16 -6 -24 -4 -12 0 -14
15 -10 33 9 79 -16 90 -48 12 -35 -2 -85 -29 -99 -33 -18 -88 -12 -110 12 -26
28 -26 48 0 48 11 0 20 -4 20 -10 0 -19 39 -31 61 -20 15 9 19 19 17 43 -3 27
-8 33 -32 35 -16 2 -33 -1 -38 -6 -5 -5 -18 -8 -28 -5 -18 5 -18 6 1 86 l10
37 59 0 c47 0 60 -3 60 -15z m273 3 c-6 -7 -44 -59 -87 -115 -53 -71 -83 -103
-97 -103 -16 0 -3 22 68 115 57 75 94 115 107 115 13 0 16 -4 9 -12z m5417 -3
c0 -11 -12 -15 -44 -15 -31 0 -46 -5 -50 -16 -10 -27 -7 -31 22 -26 42 6 82
-30 82 -76 0 -50 -32 -82 -82 -82 -40 0 -78 27 -78 55 0 22 29 18 50 -7 16
-20 21 -21 44 -10 23 10 27 18 24 45 -3 27 -7 33 -32 35 -16 2 -33 -1 -38 -6
-15 -15 -49 -2 -44 17 2 9 8 32 11 51 10 50 10 50 76 50 46 0 59 -3 59 -15z
m273 3 c-6 -7 -44 -59 -87 -115 -53 -71 -83 -103 -97 -103 -16 0 -3 22 68 115
57 75 94 115 107 115 13 0 16 -4 9 -12z m-11455 -114 c26 -18 30 -65 6 -88
-23 -24 -70 -20 -88 6 -21 30 -20 54 4 78 24 24 48 25 78 4z m5792 -4 c39 -39
14 -100 -41 -100 -34 0 -59 24 -59 56 0 29 33 64 60 64 11 0 29 -9 40 -20z
m5690 0 c39 -39 14 -100 -41 -100 -34 0 -59 24 -59 56 0 29 33 64 60 64 11 0
29 -9 40 -20z m-6180 -65 c15 -18 5 -35 -21 -35 -12 0 -19 7 -19 18 0 33 20
42 40 17z m-5922 -177 c14 -14 16 -44 4 -52 -4 -2 -8 8 -7 22 0 22 -5 28 -27
30 -27 3 -28 2 -27 -48 1 -28 -1 -54 -5 -57 -3 -3 -6 21 -6 55 0 61 0 62 28
62 15 0 33 -5 40 -12z m829 -80 c-2 -18 -4 -4 -4 32 0 36 2 50 4 33 2 -18 2
-48 0 -65z m4896 85 c-20 -4 -23 -11 -23 -53 0 -42 3 -49 23 -53 19 -4 18 -4
-5 -6 -28 -1 -28 0 -28 59 0 59 0 60 28 59 23 -2 24 -2 5 -6z m204 -85 c-2
-18 -4 -4 -4 32 0 36 2 50 4 33 2 -18 2 -48 0 -65z m777 83 c4 -5 -4 -7 -15
-4 -15 4 -27 0 -35 -12 -8 -11 -14 -14 -14 -9 0 26 51 46 64 25z m129 2 c-7
-2 -21 -2 -30 0 -10 3 -4 5 12 5 17 0 24 -2 18 -5z m84 -18 c2 -17 1 -18 -3
-2 -4 13 -12 17 -25 14 -11 -3 -16 -1 -13 4 10 17 39 5 41 -16z m4597 17 c3
-5 -8 -6 -24 -4 -29 4 -29 4 -28 -47 0 -47 2 -51 23 -51 13 0 29 8 34 18 6 9
11 12 11 7 0 -19 -23 -35 -52 -35 -28 0 -28 1 -28 60 0 60 0 60 29 60 17 0 32
-4 35 -8z m493 -84 c-2 -18 -4 -4 -4 32 0 36 2 50 4 33 2 -18 2 -48 0 -65z
m-6227 32 c0 -15 -8 -34 -17 -41 -15 -11 -16 -11 -5 1 6 8 12 26 12 40 0 14
-6 32 -12 40 -11 12 -10 12 5 1 9 -7 17 -26 17 -41z m311 -22 l-5 -43 -6 40
c-6 44 -1 73 9 56 4 -5 4 -29 2 -53z m-5863 -2 l-1 -41 -4 38 c-3 28 -9 37
-23 37 -14 0 -20 -9 -23 -37 -3 -36 -4 -36 -5 8 -2 45 -2 46 28 41 28 -4 30
-7 28 -46z m6566 39 c3 -8 1 -15 -4 -15 -6 0 -10 7 -10 15 0 8 2 15 4 15 2 0
6 -7 10 -15z m-6233 -12 c13 -16 12 -17 -3 -4 -23 18 -48 7 -49 -21 -1 -18 -2
-19 -6 -5 -5 20 13 47 32 47 7 0 19 -8 26 -17z m134 6 c11 -16 1 -19 -13 -3
-7 8 -8 14 -3 14 5 0 13 -5 16 -11z m99 -12 c14 -21 -3 -51 -30 -54 -15 -2
-14 -1 4 7 26 11 29 45 5 60 -11 7 -12 10 -4 7 8 -2 19 -11 25 -20z m114 11
c7 -7 12 -16 12 -22 0 -5 -6 -1 -14 9 -16 23 -46 14 -46 -15 0 -12 9 -24 23
-30 13 -5 16 -9 7 -9 -20 -1 -40 18 -40 39 0 18 19 40 35 40 6 0 16 -5 23 -12z
m59 6 c-3 -3 -12 -4 -19 -1 -8 3 -5 6 6 6 11 1 17 -2 13 -5z m71 -6 c7 -7 12
-16 12 -22 0 -5 -6 -1 -14 9 -16 23 -46 14 -46 -15 0 -12 9 -24 23 -30 13 -5
16 -9 7 -9 -20 -1 -40 18 -40 39 0 18 19 40 35 40 6 0 16 -5 23 -12z m87 2 c3
-6 -1 -7 -9 -4 -18 7 -21 14 -7 14 6 0 13 -4 16 -10z m5103 -2 c7 -7 12 -16
12 -22 0 -5 -6 -1 -14 9 -16 23 -46 14 -46 -15 0 -12 9 -24 23 -30 13 -5 16
-9 7 -9 -20 -1 -40 18 -40 39 0 18 19 40 35 40 6 0 16 -5 23 -12z m87 1 c11
-16 1 -19 -13 -3 -7 8 -8 14 -3 14 5 0 13 -5 16 -11z m580 -7 c-3 -3 -11 0
-18 7 -9 10 -8 11 6 5 10 -3 15 -9 12 -12z m4903 7 c-25 -14 -22 -48 5 -59 13
-5 16 -9 7 -9 -20 -1 -40 18 -40 39 0 18 19 40 35 40 5 0 2 -5 -7 -11z m287
-3 c-12 -8 -16 -20 -12 -35 3 -11 1 -19 -4 -15 -21 13 -1 64 25 64 5 0 2 -6
-9 -14z m130 4 c3 -6 -1 -7 -9 -4 -18 7 -21 14 -7 14 6 0 13 -4 16 -10z m310
-1 c11 -16 1 -19 -13 -3 -7 8 -8 14 -3 14 5 0 13 -5 16 -11z m52 5 c-3 -3 -12
-4 -19 -1 -8 3 -5 6 6 6 11 1 17 -2 13 -5z m-12540 -26 c-3 -8 -6 -5 -6 6 -1
11 2 17 5 13 3 -3 4 -12 1 -19z m113 -7 c0 -21 -19 -41 -39 -40 -10 0 -6 4 8
10 18 7 22 15 19 34 -3 13 -1 22 3 19 5 -3 9 -13 9 -23z m147 7 c-3 -8 -6 -5
-6 6 -1 11 2 17 5 13 3 -3 4 -12 1 -19z m50 0 c-3 -8 -6 -5 -6 6 -1 11 2 17 5
13 3 -3 4 -12 1 -19z m255 -13 c-2 -19 -6 -35 -8 -35 -2 0 -4 16 -4 35 0 19 4
35 8 35 4 0 6 -16 4 -35z m135 -12 c-3 -10 -5 -2 -5 17 0 19 2 27 5 18 2 -10
2 -26 0 -35z m340 -5 c-2 -13 -4 -5 -4 17 -1 22 1 32 4 23 2 -10 2 -28 0 -40z
m90 30 c-3 -8 -6 -5 -6 6 -1 11 2 17 5 13 3 -3 4 -12 1 -19z m50 0 c-3 -8 -6
-5 -6 6 -1 11 2 17 5 13 3 -3 4 -12 1 -19z m37 6 c3 -8 2 -12 -4 -9 -6 3 -10
10 -10 16 0 14 7 11 14 -7z m70 0 c3 -8 2 -12 -4 -9 -6 3 -10 10 -10 16 0 14
7 11 14 -7z m4533 -31 c-3 -10 -5 -2 -5 17 0 19 2 27 5 18 2 -10 2 -26 0 -35z
m275 12 c-2 -19 -6 -35 -8 -35 -2 0 -4 16 -4 35 0 19 4 35 8 35 4 0 6 -16 4
-35z m135 13 c-3 -8 -6 -5 -6 6 -1 11 2 17 5 13 3 -3 4 -12 1 -19z m5295 -13
c-2 -19 -6 -35 -8 -35 -2 0 -4 16 -4 35 0 19 4 35 8 35 4 0 6 -16 4 -35z m95
-12 c-3 -10 -5 -2 -5 17 0 19 2 27 5 18 2 -10 2 -26 0 -35z m180 0 c-3 -10 -5
-2 -5 17 0 19 2 27 5 18 2 -10 2 -26 0 -35z m130 0 c-3 -10 -5 -2 -5 17 0 19
2 27 5 18 2 -10 2 -26 0 -35z m70 -5 c-2 -13 -4 -5 -4 17 -1 22 1 32 4 23 2
-10 2 -28 0 -40z m130 0 c-2 -13 -4 -5 -4 17 -1 22 1 32 4 23 2 -10 2 -28 0
-40z m90 0 c-2 -13 -4 -5 -4 17 -1 22 1 32 4 23 2 -10 2 -28 0 -40z m100 0
c-2 -13 -4 -5 -4 17 -1 22 1 32 4 23 2 -10 2 -28 0 -40z m120 30 c-3 -8 -6 -5
-6 6 -1 11 2 17 5 13 3 -3 4 -12 1 -19z m-5882 3 c-18 -7 -55 -4 -55 5 0 2 17
4 38 3 28 0 32 -2 17 -8z m5152 -38 c-3 -10 -5 -2 -5 17 0 19 2 27 5 18 2 -10
2 -26 0 -35z m380 15 c-3 -7 -5 -2 -5 12 0 14 2 19 5 13 2 -7 2 -19 0 -25z
m180 -15 c-3 -10 -5 -2 -5 17 0 19 2 27 5 18 2 -10 2 -26 0 -35z m80 15 c-3
-7 -5 -2 -5 12 0 14 2 19 5 13 2 -7 2 -19 0 -25z m-5548 -14 c-14 -17 -51 -15
-55 4 -1 7 0 8 3 2 9 -19 45 -11 51 12 3 12 7 17 10 10 2 -7 -2 -19 -9 -28z
m113 14 c-4 -18 -2 -20 16 -16 12 4 20 2 16 -3 -15 -24 -51 -1 -40 26 8 23 15
18 8 -7z m-272 -18 c10 0 24 8 30 18 7 10 10 11 7 3 -2 -8 -11 -19 -20 -25
-19 -12 -48 1 -54 25 -3 8 0 7 7 -3 6 -10 20 -18 30 -18z m-6350 3 c16 4 20 3
13 -4 -15 -15 -45 -7 -50 11 -4 12 -3 13 5 1 6 -8 19 -12 32 -8z m870 0 c16 4
20 3 13 -4 -15 -15 -45 -7 -50 11 -4 12 -3 13 5 1 6 -8 19 -12 32 -8z m4614 1
c3 -8 2 -12 -4 -9 -6 3 -10 10 -10 16 0 14 7 11 14 -7z m5800 0 c3 -8 2 -12
-4 -9 -6 3 -10 10 -10 16 0 14 7 11 14 -7z m310 0 c3 -8 2 -12 -4 -9 -6 3 -10
10 -10 16 0 14 7 11 14 -7z m-11473 -12 c-7 -2 -18 1 -23 6 -8 8 -4 9 13 5 13
-4 18 -8 10 -11z m832 6 c-2 -5 -10 -8 -18 -8 -8 0 -16 3 -18 8 -3 4 5 7 18 7
13 0 21 -3 18 -7z m70 0 c-2 -5 -10 -8 -18 -8 -8 0 -16 3 -18 8 -3 4 5 7 18 7
13 0 21 -3 18 -7z m4632 2 c3 -5 1 -10 -4 -10 -6 0 -11 5 -11 10 0 6 2 10 4
10 3 0 8 -4 11 -10z m396 -8 c-7 -2 -18 1 -23 6 -8 8 -4 9 13 5 13 -4 18 -8
10 -11z m6054 8 c-3 -5 -14 -10 -23 -9 -14 0 -13 2 3 9 27 11 27 11 20 0z
m-11888 -6 c-3 -3 -12 -4 -19 -1 -8 3 -5 6 6 6 11 1 17 -2 13 -5z m11574 -27
c-10 -9 -11 -8 -5 6 3 10 9 15 12 12 3 -3 0 -11 -7 -18z m-8301 -192 l0 -55
-1932 0 c-1783 0 -1933 1 -1950 17 -22 20 -23 51 -1 75 15 17 89 18 1950 18
l1933 0 0 -55z m3320 0 l0 -55 -712 0 c-648 0 -713 1 -730 17 -22 20 -23 51
-1 75 15 17 51 18 730 18 l713 0 0 -55z m8940 0 l0 -55 -2302 0 c-2127 0
-2303 1 -2320 17 -22 20 -23 51 -1 75 15 17 101 18 2320 18 l2303 0 0 -55z
m-16030 -975 c11 -11 20 -24 20 -30 0 -16 -30 -12 -36 5 -7 18 -45 20 -62 3
-7 -7 -12 -27 -12 -45 0 -43 32 -58 72 -35 35 21 50 6 19 -19 -54 -44 -121
-10 -121 60 0 68 75 106 120 61z m980 0 c11 -11 20 -24 20 -30 0 -16 -30 -12
-36 5 -7 18 -45 20 -62 3 -7 -7 -12 -27 -12 -45 0 -43 32 -58 72 -35 35 21 50
6 19 -19 -54 -44 -121 -10 -121 60 0 68 75 106 120 61z m70 -60 c0 -64 -3 -80
-15 -80 -12 0 -15 16 -15 80 0 64 3 80 15 80 12 0 15 -16 15 -80z m370 59 c0
-5 -7 -9 -15 -9 -15 0 -20 12 -9 23 8 8 24 -1 24 -14z m80 14 c0 -3 -7 -15
-17 -25 -15 -17 -14 -18 20 -18 l37 0 0 -55 c0 -30 -4 -55 -10 -55 -5 0 -10
18 -10 40 0 36 -2 40 -25 40 -22 0 -25 -4 -25 -40 0 -22 -4 -40 -10 -40 -5 0
-10 18 -10 39 0 22 -4 42 -9 46 -9 5 -1 26 22 63 9 13 37 17 37 5z m40 -8 c0
-8 -4 -15 -10 -15 -5 0 -10 7 -10 15 0 8 5 15 10 15 6 0 10 -7 10 -15z m360
-6 c0 -5 -7 -9 -15 -9 -15 0 -20 12 -9 23 8 8 24 -1 24 -14z m6720 6 c0 -10
-11 -15 -35 -15 -28 0 -35 -4 -35 -20 0 -16 7 -20 30 -20 17 0 30 -4 30 -10 0
-5 -13 -10 -30 -10 -23 0 -30 -4 -30 -20 0 -16 7 -20 35 -20 24 0 35 -5 35
-15 0 -11 -12 -15 -50 -15 l-50 0 0 73 c0 41 3 77 7 80 3 4 26 7 50 7 32 0 43
-4 43 -15z m1320 0 c0 -8 -9 -15 -20 -15 -18 0 -20 -7 -20 -65 0 -51 -3 -65
-15 -65 -12 0 -15 14 -15 65 0 63 -1 65 -25 65 -24 0 -32 10 -18 23 3 4 30 7
60 7 40 0 53 -4 53 -15z m440 -64 l0 -79 -42 0 c-53 -1 -68 11 -68 54 0 37 27
59 60 49 17 -5 20 -2 20 24 0 21 5 31 15 31 12 0 15 -15 15 -79z m-10190 44
c0 -8 5 -15 10 -15 6 0 10 -7 10 -15 0 -8 -4 -15 -10 -15 -5 0 -10 -18 -10
-40 0 -22 -4 -40 -10 -40 -5 0 -10 18 -10 40 0 22 -4 40 -10 40 -5 0 -10 7
-10 15 0 8 5 15 10 15 6 0 10 7 10 15 0 8 5 15 10 15 6 0 10 -7 10 -15z m1657
-10 c6 -14 7 -27 2 -31 -5 -3 -9 -23 -9 -45 0 -28 -4 -39 -15 -39 -11 0 -15
11 -15 40 0 22 -4 40 -10 40 -5 0 -10 7 -10 15 0 8 5 15 10 15 6 0 10 7 10 15
0 24 24 17 37 -10z m7893 10 c0 -8 5 -15 10 -15 6 0 10 -7 10 -15 0 -8 -4 -15
-10 -15 -5 0 -10 -18 -10 -40 0 -29 -4 -40 -15 -40 -11 0 -15 11 -15 39 0 22
-4 42 -9 45 -12 8 11 56 27 56 6 0 12 -7 12 -15z m-9622 -27 c7 -7 12 -31 12
-54 l0 -42 -42 2 c-39 1 -43 4 -43 26 0 17 7 26 24 30 14 3 26 11 29 18 5 15
-20 16 -36 0 -6 -6 -15 -8 -19 -4 -10 9 25 36 47 36 9 0 21 -5 28 -12z m183 2
c10 -6 19 -20 19 -30 0 -16 -7 -20 -36 -20 -24 0 -34 -4 -31 -12 2 -8 18 -12
37 -10 28 2 31 0 20 -13 -27 -33 -90 -7 -90 37 0 25 27 58 47 58 8 0 23 -5 34
-10z m149 -56 c0 -69 -15 -94 -55 -94 -27 0 -65 32 -46 38 6 2 18 -2 26 -8 18
-15 45 -6 45 15 0 12 -6 15 -21 10 -25 -8 -59 19 -59 48 0 35 28 56 71 54 l39
-1 0 -62z m112 49 c36 -33 13 -93 -37 -93 -52 0 -74 65 -33 94 29 20 47 20 70
-1z m108 2 c0 -7 -9 -15 -20 -18 -15 -4 -20 -14 -20 -41 0 -25 -4 -36 -15 -36
-11 0 -15 12 -15 48 0 27 2 51 4 53 11 10 66 5 66 -6z m47 -22 l16 -38 11 25
c17 39 27 51 36 45 7 -4 -32 -109 -53 -142 -10 -15 -47 -17 -47 -3 0 6 7 10
15 10 26 0 27 24 5 79 -23 60 -23 61 -9 61 5 0 17 -17 26 -37z m437 21 c9 -8
16 -32 16 -53 l0 -38 -45 -1 c-48 -1 -60 7 -50 38 4 13 15 20 30 20 13 0 26 4
30 9 8 15 -15 25 -28 12 -15 -15 -27 -14 -27 3 0 27 50 34 74 10z m106 1 c17
-20 5 -32 -15 -15 -11 9 -19 10 -26 3 -7 -7 -1 -14 21 -21 25 -9 31 -16 28
-34 -2 -19 -9 -23 -37 -23 -19 0 -36 6 -38 12 -3 9 4 11 26 7 39 -8 40 1 1 21
-32 16 -38 33 -18 53 17 17 43 15 58 -3z m99 2 c14 -18 2 -30 -16 -15 -10 8
-17 8 -25 0 -9 -9 -4 -15 20 -23 34 -12 40 -27 20 -47 -17 -17 -53 -15 -69 4
-12 15 -10 16 19 10 38 -9 43 6 7 22 -26 12 -34 47 -12 55 23 10 44 7 56 -6z
m61 -48 c0 -37 -4 -49 -15 -49 -11 0 -15 12 -15 48 0 27 3 52 6 55 15 14 24
-7 24 -54z m228 49 c19 -19 14 -26 -20 -24 -27 1 -34 -3 -36 -22 -4 -25 23
-41 41 -23 15 15 27 14 27 -3 0 -32 -63 -35 -84 -4 -21 30 -20 44 4 68 23 23
50 26 68 8z m116 -4 c9 -8 16 -32 16 -53 l0 -38 -45 -1 c-48 -1 -60 7 -50 38
4 13 15 20 30 20 13 0 26 4 30 9 8 15 -15 25 -28 12 -15 -15 -27 -14 -27 3 0
27 50 34 74 10z m136 -39 c0 -42 -3 -55 -15 -55 -11 0 -15 12 -15 48 0 27 3
52 7 55 16 17 23 3 23 -48z m114 39 c19 -18 21 -65 4 -82 -20 -20 -65 -14 -82
10 -21 30 -20 44 4 68 24 24 53 26 74 4z m124 3 c14 -9 17 -97 3 -97 -6 0 -11
17 -13 38 -2 29 -7 37 -23 37 -16 0 -21 -8 -23 -37 -2 -25 -8 -38 -18 -38 -10
0 -14 13 -14 48 0 27 2 51 4 53 8 7 71 4 84 -4z m6598 0 c3 -3 9 -26 11 -52 5
-36 3 -45 -10 -45 -11 0 -17 11 -19 38 -2 29 -7 37 -23 37 -16 0 -21 -8 -23
-37 -5 -58 -22 -45 -22 16 l0 54 40 -2 c22 -1 42 -5 46 -9z m138 -55 c0 -34
-7 -68 -14 -77 -16 -19 -64 -19 -80 0 -18 21 -4 32 21 17 16 -10 24 -10 35 -1
20 17 17 31 -6 24 -33 -11 -60 12 -60 50 0 40 19 55 70 51 l35 -2 -1 -62z
m104 56 c7 -7 12 -31 12 -54 l0 -42 -42 2 c-39 1 -43 4 -43 26 0 17 6 26 20
28 39 6 49 12 38 23 -7 7 -17 7 -31 -2 -27 -17 -43 -2 -18 17 24 17 48 18 64
2z m146 -56 c0 -34 -7 -68 -14 -77 -16 -19 -64 -19 -80 0 -18 21 -4 32 21 17
16 -10 24 -10 35 -1 20 17 17 31 -6 24 -33 -11 -60 12 -60 50 0 40 19 55 70
51 l35 -2 -1 -62z m108 51 c30 -27 22 -43 -23 -43 -28 0 -39 -4 -36 -12 2 -8
19 -12 42 -11 32 2 35 1 25 -12 -15 -18 -61 -20 -78 -3 -18 18 -15 75 6 87 25
15 43 13 64 -6z m124 4 c4 -4 13 -2 20 4 7 6 22 8 34 4 17 -5 20 -15 20 -56 0
-57 -17 -67 -22 -12 -2 27 -8 39 -20 41 -15 3 -18 -4 -18 -37 0 -30 -4 -41
-15 -41 -11 0 -15 11 -15 40 0 33 -3 40 -20 40 -17 0 -20 -7 -20 -40 0 -29 -4
-40 -15 -40 -11 0 -15 12 -15 48 0 27 2 51 5 54 7 7 73 3 81 -5z m176 1 c8 -7
18 -21 21 -30 5 -15 0 -18 -34 -18 -28 0 -39 -4 -36 -12 2 -8 18 -12 36 -10
23 2 32 -2 29 -10 -3 -7 -18 -14 -35 -16 -23 -2 -35 3 -47 20 -21 30 -20 44 4
68 23 23 40 25 62 8z m138 -8 c16 -30 13 -90 -5 -90 -11 0 -15 11 -15 40 0 33
-4 40 -19 40 -21 0 -31 -19 -31 -56 0 -13 -4 -24 -10 -24 -5 0 -10 24 -10 53
l0 53 40 1 c30 2 42 -3 50 -17z m340 4 c0 -6 -9 -14 -20 -17 -15 -4 -20 -14
-20 -41 0 -20 -4 -36 -10 -36 -5 0 -10 24 -10 53 0 53 0 54 30 54 17 0 30 -6
30 -13z m91 6 c10 -6 19 -20 19 -30 0 -16 -7 -20 -36 -20 -24 0 -34 -4 -31
-12 2 -8 18 -12 37 -10 28 2 31 0 20 -13 -27 -33 -90 -7 -90 37 0 25 27 58 47
58 8 0 23 -5 34 -10z m135 -3 c3 -3 9 -26 11 -52 5 -36 3 -45 -10 -45 -11 0
-17 11 -19 38 -2 29 -7 37 -23 37 -16 0 -21 -8 -23 -37 -5 -58 -22 -45 -22 16
l0 54 40 -2 c22 -1 42 -5 46 -9z m-7886 -2491 l0 -673 -121 -12 c-184 -19
-319 -57 -481 -137 -145 -73 -228 -132 -344 -248 -146 -146 -229 -271 -308
-466 -98 -240 -116 -567 -45 -825 10 -38 16 -72 11 -76 -6 -5 -1241 -408
-1266 -412 -9 -2 -40 92 -33 99 2 3 10 -16 17 -41 7 -25 15 -45 17 -45 3 0
1185 383 1250 405 9 3 8 17 -3 57 -59 214 -63 456 -12 673 64 275 238 555 452
725 31 25 54 50 52 56 -4 10 -751 1042 -766 1058 -13 13 -185 -129 -316 -259
-417 -417 -675 -937 -766 -1545 -18 -117 -17 -596 1 -715 7 -49 24 -139 37
-200 13 -60 26 -121 29 -135 l6 -25 -11 24 c-14 32 -54 221 -71 336 -18 119
-19 607 -1 725 77 512 263 940 580 1336 148 186 399 415 602 550 399 267 930
438 1378 443 l112 1 0 -674z m3360 -2016 l0 -80 -270 0 -270 0 0 80 0 80 270
0 270 0 0 -80z m0 -295 l0 -85 -270 0 -270 0 0 85 0 85 270 0 270 0 0 -85z"/>
<path d="M496 15754 c-32 -31 -14 -84 29 -84 27 0 45 18 45 46 0 25 -24 54
-45 54 -7 0 -21 -7 -29 -16z"/>
<path d="M2822 15731 c-10 -29 -10 -31 14 -31 22 0 24 3 19 23 -12 37 -22 40
-33 8z"/>
<path d="M3031 15712 c-7 -14 -7 -24 3 -37 19 -27 48 -12 44 22 -4 33 -32 42
-47 15z"/>
<path d="M4740 15745 c0 -21 5 -25 29 -25 29 0 42 14 34 38 -3 6 -18 12 -34
12 -24 0 -29 -4 -29 -25z"/>
<path d="M5152 15731 c-10 -29 -10 -31 14 -31 22 0 24 3 19 23 -12 37 -22 40
-33 8z"/>
<path d="M727 15724 c-13 -13 -7 -24 14 -24 11 0 19 5 17 12 -5 14 -22 21 -31
12z"/>
<path d="M1037 15724 c-13 -13 -7 -24 14 -24 11 0 19 5 17 12 -5 14 -22 21
-31 12z"/>
<path d="M1721 15717 c-17 -21 -3 -49 23 -45 15 2 21 10 21 28 0 28 -26 38
-44 17z"/>
<path d="M1937 15724 c-4 -4 -7 -18 -7 -31 0 -18 5 -23 26 -23 22 0 25 4 22
27 -3 27 -26 41 -41 27z"/>
<path d="M2047 15724 c-14 -14 -6 -24 19 -24 16 0 24 5 22 13 -5 14 -31 21
-41 11z"/>
<path d="M2307 15724 c-14 -14 -6 -24 19 -24 16 0 24 5 22 13 -5 14 -31 21
-41 11z"/>
<path d="M3187 15724 c-14 -14 -6 -24 19 -24 16 0 24 5 22 13 -5 14 -31 21
-41 11z"/>
<path d="M3497 15724 c-14 -14 -6 -24 19 -24 16 0 24 5 22 13 -5 14 -31 21
-41 11z"/>
<path d="M3970 15715 c-17 -21 -2 -50 26 -50 14 0 19 7 19 30 0 34 -24 45 -45
20z"/>
<path d="M4240 15715 c0 -9 9 -15 25 -15 18 0 23 4 19 15 -4 8 -15 15 -25 15
-10 0 -19 -7 -19 -15z"/>
<path d="M670 14735 c0 -23 4 -26 28 -23 19 2 27 9 27 23 0 14 -8 21 -27 23
-24 3 -28 0 -28 -23z"/>
<path d="M1382 14748 c-7 -7 -12 -27 -12 -45 0 -26 5 -36 23 -42 45 -17 82 33
57 78 -12 23 -49 28 -68 9z"/>
<path d="M880 14685 c0 -32 28 -45 46 -21 17 24 7 46 -22 46 -19 0 -24 -5 -24
-25z"/>
<path d="M1197 14714 c-13 -13 -7 -24 14 -24 11 0 19 5 17 12 -5 14 -22 21
-31 12z"/>
<path d="M1653 14713 c-20 -7 -15 -23 7 -23 11 0 20 4 20 9 0 13 -12 19 -27
14z"/>
<path d="M2020 14704 c-10 -12 -8 -14 14 -14 28 0 35 14 12 23 -8 3 -20 -1
-26 -9z"/>
<path d="M2262 13833 c4 -32 17 -38 43 -19 16 12 17 16 6 30 -7 9 -22 16 -33
16 -15 0 -19 -6 -16 -27z"/>
<path d="M2850 13835 c0 -20 5 -25 25 -25 29 0 45 28 24 41 -27 17 -49 10 -49
-16z"/>
<path d="M8000 13835 c0 -20 5 -25 24 -25 27 0 40 22 23 39 -21 21 -47 13 -47
-14z"/>
<path d="M12291 13822 c-15 -28 -14 -32 9 -32 21 0 26 16 11 39 -7 11 -11 10
-20 -7z"/>
<path d="M13330 13844 c0 -17 22 -14 28 4 2 7 -3 12 -12 12 -9 0 -16 -7 -16
-16z"/>
<path d="M13317 13793 c-12 -11 -8 -22 13 -33 28 -15 43 -4 27 20 -12 20 -28
25 -40 13z"/>
<path d="M13490 13836 c0 -30 9 -37 38 -29 25 6 29 38 6 47 -31 12 -44 6 -44
-18z"/>
<path d="M2442 13808 c-16 -16 -15 -33 3 -48 12 -10 18 -10 30 0 20 16 19 46
-1 54 -20 8 -18 8 -32 -6z"/>
<path d="M2703 13813 c-22 -8 -14 -23 13 -23 15 0 24 5 22 12 -5 14 -18 18
-35 11z"/>
<path d="M2965 13771 c-3 -5 -1 -12 5 -16 12 -7 30 2 30 16 0 12 -27 12 -35 0z"/>
<path d="M3274 13806 c-9 -24 4 -48 23 -44 12 2 18 12 18 28 0 29 -32 41 -41
16z"/>
<path d="M7407 13813 c-13 -12 -7 -51 8 -57 23 -9 47 22 35 45 -11 19 -31 25
-43 12z"/>
<path d="M7683 13813 c-22 -8 -14 -23 13 -23 15 0 24 5 22 12 -5 14 -18 18
-35 11z"/>
<path d="M8113 13768 c2 -7 10 -13 17 -13 7 0 15 6 18 13 2 7 -5 12 -18 12
-13 0 -20 -5 -17 -12z"/>
<path d="M8427 13813 c-4 -3 -7 -17 -7 -30 0 -16 6 -23 19 -23 25 0 34 14 26
40 -6 20 -25 26 -38 13z"/>
<path d="M12667 13814 c-13 -13 -7 -24 14 -24 11 0 19 5 17 12 -5 14 -22 21
-31 12z"/>
<path d="M13607 13814 c-13 -13 -7 -24 14 -24 11 0 19 5 17 12 -5 14 -22 21
-31 12z"/>
<path d="M13877 13814 c-13 -13 -7 -24 14 -24 11 0 19 5 17 12 -5 14 -22 21
-31 12z"/>
<path d="M13982 13808 c-16 -16 -15 -33 4 -49 14 -11 18 -10 30 5 9 13 10 24
3 37 -11 22 -20 24 -37 7z"/>
<path d="M14187 13813 c-13 -12 -7 -51 8 -57 23 -9 47 22 35 45 -11 19 -31 25
-43 12z"/>
<path d="M858 13663 c23 -2 59 -2 80 0 20 2 1 4 -43 4 -44 0 -61 -2 -37 -4z"/>
<path d="M1043 13663 c9 -2 25 -2 35 0 9 3 1 5 -18 5 -19 0 -27 -2 -17 -5z"/>
<path d="M1258 13663 c6 -2 18 -2 25 0 6 3 1 5 -13 5 -14 0 -19 -2 -12 -5z"/>
<path d="M1318 13663 c7 -3 16 -2 19 1 4 3 -2 6 -13 5 -11 0 -14 -3 -6 -6z"/>
<path d="M1466 13483 c-9 -23 16 -36 34 -17 13 13 13 16 0 24 -21 14 -27 12
-34 -7z"/>
<path d="M1760 13456 c0 -9 5 -16 10 -16 6 0 10 4 10 9 0 6 -4 13 -10 16 -5 3
-10 -1 -10 -9z"/>
<path d="M701 13452 c-1 -7 -10 -16 -21 -20 -19 -7 -19 -8 -1 -19 27 -17 44
-2 32 28 -5 13 -10 18 -10 11z"/>
<path d="M729 13393 c-13 -17 -13 -17 6 -3 11 8 22 16 24 17 2 2 0 3 -6 3 -6
0 -17 -8 -24 -17z"/>
<path d="M1400 13369 c0 -11 7 -19 16 -19 10 0 14 -5 10 -15 -5 -13 -2 -14 15
-5 27 15 20 42 -13 51 -23 6 -28 4 -28 -12z"/>
<path d="M1347 13353 c-14 -13 -6 -24 15 -21 27 4 36 28 11 28 -11 0 -23 -3
-26 -7z"/>
<path d="M2374 13525 c-8 -21 2 -45 20 -45 19 0 29 29 15 46 -15 18 -28 18
-35 -1z"/>
<path d="M2602 13528 c-31 -31 0 -105 33 -78 17 14 19 43 5 71 -12 22 -21 24
-38 7z"/>
<path d="M7387 13534 c-14 -15 -6 -34 14 -34 14 0 19 5 17 17 -3 18 -20 27
-31 17z"/>
<path d="M7376 13471 c-3 -5 1 -14 9 -21 12 -10 18 -10 30 0 18 15 11 30 -15
30 -10 0 -21 -4 -24 -9z"/>
<path d="M7600 13521 c-13 -26 -13 -43 3 -65 19 -27 47 -10 47 28 0 50 -30 73
-50 37z"/>
<path d="M12580 13521 c-13 -26 -13 -43 3 -65 19 -27 47 -10 47 28 0 50 -30
73 -50 37z"/>
<path d="M2377 13194 c-14 -15 -6 -34 14 -34 14 0 19 5 17 17 -3 18 -20 27
-31 17z"/>
<path d="M2372 13123 c4 -20 18 -26 37 -14 18 12 5 31 -20 31 -14 0 -19 -6
-17 -17z"/>
<path d="M2589 13173 c-21 -56 29 -101 53 -48 8 19 8 31 0 50 -15 33 -40 32
-53 -2z"/>
<path d="M7381 13187 c-15 -19 -3 -49 18 -45 9 2 16 13 16 27 0 29 -17 37 -34
18z"/>
<path d="M7480 13181 c-22 -42 -1 -89 34 -75 22 8 22 79 0 88 -22 8 -22 8 -34
-13z"/>
<path d="M7580 13180 c0 -13 5 -20 13 -17 6 2 12 10 12 17 0 7 -6 15 -12 18
-8 2 -13 -5 -13 -18z"/>
<path d="M12530 13180 c0 -13 5 -20 13 -17 6 2 12 10 12 17 0 7 -6 15 -12 18
-8 2 -13 -5 -13 -18z"/>
<path d="M2920 13165 c0 -24 3 -26 33 -23 24 2 32 8 32 23 0 15 -8 21 -32 23
-30 3 -33 1 -33 -23z"/>
<path d="M2920 13105 c0 -24 3 -26 33 -23 24 2 32 8 32 23 0 15 -8 21 -32 23
-30 3 -33 1 -33 -23z"/>
<path d="M13290 13160 c0 -29 2 -31 33 -28 27 2 32 7 32 28 0 21 -5 26 -32 28
-31 3 -33 1 -33 -28z"/>
<path d="M7660 13115 c0 -9 5 -15 11 -13 6 2 11 8 11 13 0 5 -5 11 -11 13 -6
2 -11 -4 -11 -13z"/>
<path d="M12610 13115 c0 -9 5 -15 11 -13 6 2 11 8 11 13 0 5 -5 11 -11 13 -6
2 -11 -4 -11 -13z"/>
<path d="M2374 12845 c-8 -21 2 -45 20 -45 19 0 29 29 15 46 -15 18 -28 18
-35 -1z"/>
<path d="M2602 12848 c-18 -18 -15 -75 4 -82 23 -9 44 12 44 43 0 25 -15 51
-30 51 -3 0 -11 -5 -18 -12z"/>
<path d="M7381 12847 c-15 -19 -3 -49 18 -45 9 2 16 13 16 27 0 29 -17 37 -34
18z"/>
<path d="M7565 12850 c-7 -12 2 -30 16 -30 5 0 9 9 9 20 0 21 -15 27 -25 10z"/>
<path d="M12390 12845 c-16 -19 -5 -47 17 -43 22 4 29 43 9 51 -8 3 -20 -1
-26 -8z"/>
<path d="M12612 12848 c-31 -31 0 -105 33 -78 25 21 14 90 -15 90 -3 0 -11 -5
-18 -12z"/>
<path d="M12940 12820 c0 -25 4 -30 24 -30 13 0 29 6 35 14 18 22 2 46 -30 46
-26 0 -29 -4 -29 -30z"/>
<path d="M13490 12820 c0 -29 2 -31 33 -28 27 2 32 7 32 28 0 21 -5 26 -32 28
-31 3 -33 1 -33 -28z"/>
<path d="M7642 12778 c6 -18 28 -21 28 -4 0 9 -7 16 -16 16 -9 0 -14 -5 -12
-12z"/>
<path d="M2572 12508 c-18 -18 -15 -75 4 -82 23 -9 44 12 44 43 0 25 -15 51
-30 51 -3 0 -11 -5 -18 -12z"/>
<path d="M801 12381 c-7 -5 -11 -14 -7 -19 9 -15 36 -4 36 14 0 16 -9 18 -29
5z"/>
<path d="M1174 12359 c-11 -18 13 -34 31 -19 8 7 15 16 15 21 0 13 -38 11 -46
-2z"/>
<path d="M1514 12396 c-11 -29 1 -51 26 -51 19 0 26 6 28 24 5 35 -42 58 -54
27z"/>
<path d="M662 10983 c4 -32 17 -38 43 -19 16 12 17 16 6 30 -7 9 -22 16 -33
16 -15 0 -19 -6 -16 -27z"/>
<path d="M7540 10985 c0 -20 5 -25 24 -25 27 0 40 22 23 39 -21 21 -47 13 -47
-14z"/>
<path d="M12180 10990 c0 -17 5 -21 28 -18 16 2 27 9 27 18 0 9 -11 16 -27 18
-23 3 -28 -1 -28 -18z"/>
<path d="M12180 10930 c0 -17 5 -21 28 -18 16 2 27 9 27 18 0 9 -11 16 -27 18
-23 3 -28 -1 -28 -18z"/>
<path d="M12571 10952 c-7 -14 -6 -24 4 -38 13 -18 15 -18 32 -1 13 13 15 21
7 34 -16 25 -31 27 -43 5z"/>
<path d="M13157 10964 c-12 -12 -8 -52 6 -57 22 -8 39 8 35 34 -3 23 -27 37
-41 23z"/>
<path d="M5100 10995 c-16 -19 -5 -47 17 -43 11 2 18 12 18 27 0 29 -17 37
-35 16z"/>
<path d="M5322 10998 c-31 -31 0 -105 33 -78 25 21 14 90 -15 90 -3 0 -11 -5
-18 -12z"/>
<path d="M10860 10995 c-16 -19 -5 -47 17 -43 11 2 18 12 18 27 0 29 -17 37
-35 16z"/>
<path d="M11082 10998 c-31 -31 0 -105 33 -78 25 21 14 90 -15 90 -3 0 -11 -5
-18 -12z"/>
<path d="M16620 10995 c-16 -19 -5 -47 17 -43 11 2 18 12 18 27 0 29 -17 37
-35 16z"/>
<path d="M16842 10998 c-31 -31 0 -105 33 -78 25 21 14 90 -15 90 -3 0 -11 -5
-18 -12z"/>
<path d="M842 10958 c-16 -16 -15 -33 3 -48 12 -10 18 -10 30 0 20 16 19 46
-1 54 -20 8 -18 8 -32 -6z"/>
<path d="M1103 10963 c-22 -8 -14 -23 13 -23 15 0 24 5 22 12 -5 14 -18 18
-35 11z"/>
<path d="M1462 10958 c-16 -16 -15 -33 4 -48 22 -19 54 12 38 37 -14 22 -27
26 -42 11z"/>
<path d="M1637 10964 c-13 -13 -7 -24 14 -24 11 0 19 5 17 12 -5 14 -22 21
-31 12z"/>
<path d="M6634 10956 c-9 -24 4 -48 23 -44 12 2 18 12 18 28 0 29 -32 41 -41
16z"/>
<path d="M6745 10921 c-3 -5 -1 -12 5 -16 12 -7 30 2 30 16 0 12 -27 12 -35 0z"/>
<path d="M6845 10950 c-8 -25 1 -40 25 -40 22 0 30 19 18 43 -12 23 -35 22
-43 -3z"/>
<path d="M6963 10963 c-22 -8 -14 -23 13 -23 15 0 24 5 22 12 -5 14 -18 18
-35 11z"/>
<path d="M7227 10964 c-13 -13 -7 -24 14 -24 11 0 19 5 17 12 -5 14 -22 21
-31 12z"/>
<path d="M7655 10921 c-3 -5 -1 -12 5 -16 12 -7 30 2 30 16 0 12 -27 12 -35 0z"/>
<path d="M7817 10964 c-13 -13 -7 -24 14 -24 11 0 19 5 17 12 -5 14 -22 21
-31 12z"/>
<path d="M12360 10914 c0 -9 7 -14 17 -12 25 5 28 28 4 28 -12 0 -21 -6 -21
-16z"/>
<path d="M13045 10921 c-3 -5 -1 -12 5 -16 12 -7 30 2 30 16 0 12 -27 12 -35
0z"/>
<path d="M697 10244 c-27 -27 12 -62 54 -49 33 11 21 49 -16 53 -17 2 -34 0
-38 -4z"/>
<path d="M708 10153 c-26 -7 -34 -44 -12 -60 22 -16 39 -16 65 -3 45 25 1 77
-53 63z"/>
<path d="M906 10228 c-23 -33 -21 -103 4 -128 41 -41 90 -8 90 63 0 51 -22 87
-55 87 -13 0 -31 -10 -39 -22z"/>
<path d="M1110 10245 c-17 -20 -5 -45 20 -45 11 0 23 7 26 15 6 15 -11 45 -26
45 -4 0 -13 -7 -20 -15z"/>
<path d="M6894 10245 c-9 -23 3 -45 25 -45 23 0 35 28 20 46 -15 18 -38 18
-45 -1z"/>
<path d="M12208 10224 c-14 -31 -1 -57 31 -62 28 -4 51 14 51 42 0 50 -62 65
-82 20z"/>
<path d="M12584 10245 c-9 -23 3 -45 25 -45 23 0 35 28 20 46 -15 18 -38 18
-45 -1z"/>
<path d="M1270 10126 c-18 -22 -5 -48 22 -44 17 2 23 10 23 28 0 29 -26 38
-45 16z"/>
<path d="M7060 10125 c-17 -20 -5 -45 20 -45 11 0 23 7 26 15 6 15 -11 45 -26
45 -4 0 -13 -7 -20 -15z"/>
<path d="M12750 10125 c-17 -20 -5 -45 20 -45 11 0 23 7 26 15 6 15 -11 45
-26 45 -4 0 -13 -7 -20 -15z"/>
<path d="M11053 8534 c-3 -8 2 -23 11 -32 15 -15 17 -15 32 0 21 21 11 48 -16
48 -11 0 -23 -7 -27 -16z"/>
<path d="M832 8513 c-6 -2 -10 -9 -6 -14 8 -14 31 -11 38 6 5 15 -7 18 -32 8z"/>
<path d="M1023 8553 c-20 -7 -15 -23 7 -23 11 0 20 4 20 9 0 13 -12 19 -27 14z"/>
<path d="M1143 8553 c-7 -3 -13 -16 -13 -29 0 -19 5 -24 25 -24 20 0 25 5 25
24 0 25 -15 36 -37 29z"/>
<path d="M1260 8525 c0 -32 28 -45 46 -21 17 24 7 46 -22 46 -19 0 -24 -5 -24
-25z"/>
<path d="M1870 8510 c-8 -5 -11 -12 -8 -16 10 -9 38 3 38 16 0 12 -10 13 -30
0z"/>
<path d="M2480 8510 c-8 -5 -11 -12 -8 -16 10 -9 38 3 38 16 0 12 -10 13 -30
0z"/>
<path d="M2714 8535 c-8 -21 2 -45 19 -45 20 0 40 27 33 45 -7 19 -45 20 -52
0z"/>
<path d="M9554 8535 c-4 -9 -2 -21 4 -27 16 -16 47 -5 47 17 0 26 -42 34 -51
10z"/>
<path d="M9695 8509 c-4 -6 -4 -13 -1 -16 8 -8 36 5 36 17 0 13 -27 13 -35 -1z"/>
<path d="M9804 8535 c-4 -9 -2 -21 4 -27 16 -16 47 -5 47 17 0 26 -42 34 -51
10z"/>
<path d="M9940 8544 c-10 -12 -8 -14 14 -14 28 0 35 14 12 23 -8 3 -20 -1 -26
-9z"/>
<path d="M10253 8553 c-22 -8 -14 -23 12 -23 14 0 25 4 25 9 0 11 -21 19 -37
14z"/>
<path d="M10823 8553 c-20 -7 -15 -23 7 -23 11 0 20 4 20 9 0 13 -12 19 -27
14z"/>
<path d="M2965 6733 c-249 -12 -522 -68 -780 -160 -142 -51 -400 -179 -533
-266 l-113 -73 386 -532 c213 -293 391 -532 396 -532 5 0 32 15 61 34 188 120
462 206 656 206 l62 0 0 665 0 665 -37 -2 c-21 -1 -65 -3 -98 -5z"/>
<path d="M5940 4060 l0 -70 260 0 260 0 0 70 0 70 -260 0 -260 0 0 -70z"/>
<path d="M5940 3770 l0 -70 260 0 260 0 0 70 0 70 -260 0 -260 0 0 -70z"/>
</g>
</svg>
